Diabolik-Légerarrondi.ufo
<glyph name="exclam" format="2">
  <advance width="222"/>
  <unicode hex="0021"/>
  <outline>
    <contour>
      <point x="122" y="0" type="curve" smooth="yes"/>
      <point x="131.334" y="9.33381"/>
      <point x="131.334" y="30.6662"/>
      <point x="122" y="40" type="curve" smooth="yes"/>
      <point x="112.666" y="49.3338"/>
      <point x="91.3338" y="49.3338"/>
      <point x="82" y="40" type="curve" smooth="yes"/>
      <point x="72.6662" y="30.6662"/>
      <point x="72.6662" y="9.33381"/>
      <point x="82" y="0" type="curve" smooth="yes"/>
      <point x="91.3338" y="-9.33381"/>
      <point x="112.666" y="-9.33381"/>
    </contour>
    <contour>
      <point x="91" y="130" type="line"/>
      <point x="91" y="700" type="line"/>
      <point x="111" y="700" type="line"/>
      <point x="111" y="130" type="line"/>
    </contour>
  </outline>
</glyph>
<glyph name="quotedbl" format="2">
  <advance width="270"/>
  <unicode hex="0022"/>
  <outline>
    <contour>
      <point x="107" y="650" type="curve" smooth="yes"/>
      <point x="109.607" y="666.293"/>
      <point x="110" y="683.5"/>
      <point x="110" y="700" type="curve"/>
      <point x="80" y="700" type="line"/>
      <point x="80" y="683.5"/>
      <point x="79.6068" y="666.293"/>
      <point x="77" y="650" type="curve" smooth="yes"/>
      <point x="72.9531" y="624.707"/>
      <point x="66.6" y="599.75"/>
      <point x="60" y="575" type="curve"/>
      <point x="90" y="575" type="line"/>
      <point x="96.6" y="599.75"/>
      <point x="102.953" y="624.707"/>
    </contour>
    <contour>
      <point x="187" y="650" type="curve" smooth="yes"/>
      <point x="189.607" y="666.293"/>
      <point x="190" y="683.5"/>
      <point x="190" y="700" type="curve"/>
      <point x="160" y="700" type="line"/>
      <point x="160" y="683.5"/>
      <point x="159.607" y="666.293"/>
      <point x="157" y="650" type="curve" smooth="yes"/>
      <point x="152.953" y="624.707"/>
      <point x="146.6" y="599.75"/>
      <point x="140" y="575" type="curve"/>
      <point x="170" y="575" type="line"/>
      <point x="176.6" y="599.75"/>
      <point x="182.953" y="624.707"/>
    </contour>
  </outline>
</glyph>
<glyph name="numbersign" format="2">
  <advance width="731"/>
  <unicode hex="0023"/>
  <outline>
    <contour>
      <point x="168" y="0" type="line"/>
      <point x="307.348" y="700" type="line"/>
      <point x="328.348" y="700" type="line"/>
      <point x="189" y="0" type="line"/>
    </contour>
    <contour>
      <point x="389" y="0" type="line"/>
      <point x="528.348" y="700" type="line"/>
      <point x="549.348" y="700" type="line"/>
      <point x="410" y="0" type="line"/>
    </contour>
    <contour>
      <point x="686" y="481" type="line"/>
      <point x="86" y="481" type="line"/>
      <point x="86" y="501" type="line"/>
      <point x="686" y="501" type="line"/>
    </contour>
    <contour>
      <point x="630" y="211" type="line"/>
      <point x="30" y="211" type="line"/>
      <point x="30" y="231" type="line"/>
      <point x="630" y="231" type="line"/>
    </contour>
  </outline>
</glyph>
<glyph name="quotesingle" format="2">
  <advance width="160"/>
  <unicode hex="0027"/>
  <outline>
    <contour>
      <point x="86" y="650" type="curve" smooth="yes"/>
      <point x="88.6068" y="666.293"/>
      <point x="90" y="683.5"/>
      <point x="90" y="700" type="curve"/>
      <point x="60" y="700" type="line"/>
      <point x="60" y="683.5"/>
      <point x="58.6068" y="666.293"/>
      <point x="56" y="650" type="curve" smooth="yes"/>
      <point x="51.9531" y="624.707"/>
      <point x="46.6" y="599.75"/>
      <point x="40" y="575" type="curve"/>
      <point x="70" y="575" type="line"/>
      <point x="76.6" y="599.75"/>
      <point x="81.9531" y="624.707"/>
    </contour>
  </outline>
</glyph>
<glyph name="parenright" format="2">
  <advance width="300"/>
  <unicode hex="0029"/>
  <outline>
    <contour>
      <point x="209" y="320" type="curve" smooth="yes"/>
      <point x="209" y="477.765"/>
      <point x="151.4" y="653.7"/>
      <point x="74" y="750" type="curve"/>
      <point x="50.039" y="750" type="line"/>
      <point x="141.839" y="629.3"/>
      <point x="189" y="459.11"/>
      <point x="189" y="320" type="curve" smooth="yes"/>
      <point x="189" y="180.89"/>
      <point x="141.839" y="-9.29999"/>
      <point x="50" y="-130" type="curve"/>
      <point x="74" y="-130" type="line"/>
      <point x="151.82" y="-33.9511"/>
      <point x="209" y="162.235"/>
    </contour>
  </outline>
</glyph>
<glyph name="asterisk" format="2">
  <advance width="570"/>
  <unicode hex="002A"/>
  <outline>
    <contour>
      <point x="516.302" y="564.27" type="line"/>
      <point x="289.993" y="524.354" type="line"/>
      <point x="405.069" y="723.69" type="line"/>
      <point x="387.744" y="733.719" type="line"/>
      <point x="272.84" y="534.681" type="line"/>
      <point x="194.129" y="750.937" type="line"/>
      <point x="175.335" y="744.097" type="line"/>
      <point x="253.97" y="528.05" type="line"/>
      <point x="37.4566" y="606.863" type="line"/>
      <point x="30.6145" y="588.091" type="line"/>
      <point x="244.311" y="510.303" type="line"/>
      <point x="49.4323" y="397.801" type="line"/>
      <point x="59.412" y="380.469" type="line"/>
      <point x="258.42" y="495.354" type="line"/>
      <point x="218.496" y="268.954" type="line"/>
      <point x="238.173" y="265.474" type="line"/>
      <point x="278.06" y="491.665" type="line"/>
      <point x="425.805" y="315.569" type="line"/>
      <point x="441.082" y="328.419" type="line"/>
      <point x="293.255" y="504.612" type="line"/>
      <point x="519.751" y="544.561" type="line"/>
    </contour>
  </outline>
</glyph>
<glyph name="plus" format="2">
  <advance width="511"/>
  <unicode hex="002B"/>
  <outline>
    <contour>
      <point x="265" y="47" type="line"/>
      <point x="245" y="47" type="line"/>
      <point x="245" y="446.934" type="line"/>
      <point x="265" y="446.934" type="line"/>
    </contour>
    <contour>
      <point x="80.5" y="247" type="line"/>
      <point x="80.5" y="267" type="line"/>
      <point x="430.442" y="267" type="line"/>
      <point x="430.442" y="247" type="line"/>
    </contour>
  </outline>
</glyph>
<glyph name="comma" format="2">
  <advance width="121"/>
  <unicode hex="002C"/>
  <outline>
    <contour>
      <point x="78" y="0" type="curve" smooth="yes"/>
      <point x="80.4699" y="12.9669"/>
      <point x="80" y="36.8"/>
      <point x="80" y="50" type="curve"/>
      <point x="40" y="50" type="line"/>
      <point x="40" y="36.8"/>
      <point x="40.4699" y="12.9669"/>
      <point x="38" y="0" type="curve" smooth="yes"/>
      <point x="33.8008" y="-22.0461"/>
      <point x="26.6" y="-43.55"/>
      <point x="20" y="-65" type="curve"/>
      <point x="60" y="-65" type="line"/>
      <point x="66.6" y="-43.55"/>
      <point x="73.8007" y="-22.0461"/>
    </contour>
  </outline>
</glyph>
<glyph name="period" format="2">
  <advance width="116"/>
  <unicode hex="002E"/>
  <outline>
    <contour>
      <point x="88" y="0" type="curve" smooth="yes"/>
      <point x="97.3338" y="9.33381"/>
      <point x="97.3338" y="30.6662"/>
      <point x="88" y="40" type="curve" smooth="yes"/>
      <point x="78.6662" y="49.3338"/>
      <point x="57.3338" y="49.3338"/>
      <point x="48" y="40" type="curve" smooth="yes"/>
      <point x="38.6662" y="30.6662"/>
      <point x="38.6662" y="9.33381"/>
      <point x="48" y="0" type="curve" smooth="yes"/>
      <point x="57.3338" y="-9.33381"/>
      <point x="78.6662" y="-9.33381"/>
    </contour>
  </outline>
</glyph>
<glyph name="zero" format="2">
  <advance width="526"/>
  <unicode hex="0030"/>
  <outline>
    <contour>
      <point x="262.529" y="710.031" type="curve"/>
      <point x="262.529" y="710.031" type="line" smooth="yes"/>
      <point x="444" y="710.05"/>
      <point x="480.059" y="467.442"/>
      <point x="480.059" y="351.199" type="curve" smooth="yes"/>
      <point x="480.059" y="246.716"/>
      <point x="451.34" y="-10"/>
      <point x="262.529" y="-10" type="curve"/>
      <point x="262.529" y="-10" type="line" smooth="yes"/>
      <point x="75" y="-10.0091"/>
      <point x="45" y="233.59"/>
      <point x="45" y="349.833" type="curve" smooth="yes"/>
      <point x="45" y="455.136"/>
      <point x="73.7189" y="710.032"/>
    </contour>
    <contour>
      <point x="262.529" y="689.68" type="line"/>
      <point x="95.6913" y="690.016"/>
      <point x="65" y="455.136"/>
      <point x="65" y="349.833" type="curve" smooth="yes"/>
      <point x="65" y="221.001"/>
      <point x="98.9629" y="16.2746"/>
      <point x="262.529" y="9.35132" type="curve" smooth="yes"/>
      <point x="262.529" y="9.35132" type="line"/>
      <point x="429.458" y="9.35132"/>
      <point x="460" y="257.921"/>
      <point x="460" y="351.199" type="curve" smooth="yes"/>
      <point x="460" y="475.648"/>
      <point x="426.009" y="683.625"/>
      <point x="262.529" y="689.68" type="curve" smooth="yes"/>
    </contour>
  </outline>
</glyph>
<glyph name="one" format="2">
  <advance width="210"/>
  <unicode hex="0031"/>
  <outline>
    <contour>
      <point x="0" y="700" type="line"/>
      <point x="139.539" y="700" type="line"/>
      <point x="159.589" y="700"/>
      <point x="170" y="690"/>
      <point x="170" y="670" type="curve"/>
      <point x="170" y="0" type="line"/>
      <point x="150" y="0" type="line"/>
      <point x="150" y="660" type="line"/>
      <point x="149.995" y="674.83"/>
      <point x="145" y="680"/>
      <point x="129.652" y="680" type="curve"/>
      <point x="0" y="680" type="line"/>
    </contour>
  </outline>
</glyph>
<glyph name="two" format="2">
  <advance width="298"/>
  <unicode hex="0032"/>
  <outline>
    <contour>
      <point x="297.107" y="0" type="line"/>
      <point x="67.8378" y="0" type="line"/>
      <point x="27.9224" y="0"/>
      <point x="25.3452" y="24.4689"/>
      <point x="36.4622" y="49.8567" type="curve"/>
      <point x="73.9007" y="148.298"/>
      <point x="244.135" y="533.748"/>
      <point x="244.943" y="626" type="curve" smooth="yes"/>
      <point x="245.581" y="699"/>
      <point x="160.383" y="694.939"/>
      <point x="60" y="670.939" type="curve"/>
      <point x="60" y="690.999" type="line"/>
      <point x="185.958" y="720.999"/>
      <point x="265.953" y="712.999"/>
      <point x="266.007" y="622" type="curve" smooth="yes"/>
      <point x="266.054" y="542.744"/>
      <point x="114.721" y="186.933"/>
      <point x="54.9883" y="40.0482" type="curve"/>
      <point x="49.7906" y="27.781"/>
      <point x="52.1503" y="20.0255"/>
      <point x="68.3034" y="19.5986" type="curve"/>
      <point x="297.107" y="19.5986" type="line"/>
    </contour>
  </outline>
</glyph>
<glyph name="three" format="2">
  <advance width="380"/>
  <unicode hex="0033"/>
  <outline>
    <contour>
      <point x="75" y="449.05" type="line"/>
      <point x="181.078" y="498"/>
      <point x="260.038" y="563.752"/>
      <point x="260.95" y="626" type="curve" smooth="yes"/>
      <point x="261.888" y="689.997"/>
      <point x="159.622" y="679.95"/>
      <point x="55" y="679.95" type="curve"/>
      <point x="55" y="700" type="line"/>
      <point x="200.95" y="703"/>
      <point x="280.917" y="705"/>
      <point x="281" y="622" type="curve" smooth="yes"/>
      <point x="281.045" y="577.604"/>
      <point x="232.419" y="500"/>
      <point x="104.633" y="440.965" type="curve"/>
      <point x="281.041" y="437.965"/>
      <point x="335" y="331.698"/>
      <point x="335" y="235" type="curve" smooth="yes"/>
      <point x="335" y="99.6"/>
      <point x="260" y="0"/>
      <point x="40" y="0" type="curve"/>
      <point x="40" y="20.05" type="line"/>
      <point x="230.25" y="20.05"/>
      <point x="314.95" y="99.05"/>
      <point x="314.95" y="235" type="curve" smooth="yes"/>
      <point x="314.95" y="338.4"/>
      <point x="252.65" y="426.05"/>
      <point x="74.65" y="423.05" type="curve"/>
    </contour>
  </outline>
</glyph>
<glyph name="four" format="2">
  <advance width="441"/>
  <unicode hex="0034"/>
  <outline>
    <contour>
      <point x="304.49" y="691.702" type="curve"/>
      <point x="25.2453" y="245.488" type="line"/>
      <point x="14.8911" y="228.921"/>
      <point x="19.2343" y="211"/>
      <point x="45.2343" y="211" type="curve"/>
      <point x="308.984" y="211" type="line"/>
      <point x="309" y="0" type="line"/>
      <point x="329" y="0" type="line"/>
      <point x="328.699" y="210.708" type="line"/>
      <point x="439.93" y="210.626" type="line"/>
      <point x="440.22" y="231.056" type="line"/>
      <point x="328.58" y="231.04" type="line"/>
      <point x="329" y="682" type="line"/>
      <point x="329" y="702"/>
      <point x="311.706" y="704.98"/>
    </contour>
    <contour>
      <point x="53.0811" y="231" type="line"/>
      <point x="46.2329" y="231.056"/>
      <point x="41.7996" y="233.681"/>
      <point x="47.6496" y="243.938" type="curve"/>
      <point x="300.164" y="645.876" type="line"/>
      <point x="307.881" y="658.817"/>
      <point x="309" y="647.817"/>
      <point x="309" y="645" type="curve"/>
      <point x="309.347" y="231" type="line"/>
    </contour>
  </outline>
</glyph>
<glyph name="seven" format="2">
  <advance width="286"/>
  <unicode hex="0037"/>
  <outline>
    <contour>
      <point x="0" y="700" type="line"/>
      <point x="220.286" y="700" type="line"/>
      <point x="241.272" y="700"/>
      <point x="248.272" y="690"/>
      <point x="245" y="670" type="curve"/>
      <point x="130" y="0" type="line"/>
      <point x="109" y="0" type="line"/>
      <point x="223" y="665" type="line"/>
      <point x="225.135" y="677.136"/>
      <point x="219.959" y="680.136"/>
      <point x="210.247" y="680" type="curve"/>
      <point x="0" y="680" type="line"/>
    </contour>
  </outline>
</glyph>
<glyph name="nine" format="2">
  <advance width="396"/>
  <unicode hex="0039"/>
  <outline>
    <contour>
      <point x="365.007" y="360" type="line"/>
      <point x="296.31" y="251.313"/>
      <point x="244.818" y="197"/>
      <point x="169.214" y="197" type="curve" smooth="yes"/>
      <point x="48.9518" y="197"/>
      <point x="0.00686646" y="332.641"/>
      <point x="0.00686646" y="432" type="curve" smooth="yes"/>
      <point x="0.00686646" y="521.257"/>
      <point x="28.9838" y="705"/>
      <point x="179.007" y="705" type="curve" smooth="yes"/>
      <point x="366" y="705"/>
      <point x="365.007" y="448"/>
      <point x="365.007" y="360" type="curve"/>
      <point x="266.007" y="-3" type="line"/>
      <point x="244.804" y="-3" type="line"/>
      <point x="345.007" y="365" type="line"/>
      <point x="345.007" y="460"/>
      <point x="340.007" y="685"/>
      <point x="179.007" y="685" type="curve" smooth="yes"/>
      <point x="48.0069" y="685"/>
      <point x="20.0569" y="519.257"/>
      <point x="20.0569" y="432" type="curve" smooth="yes"/>
      <point x="20.0569" y="333.651"/>
      <point x="71.7092" y="215.095"/>
      <point x="169.219" y="216.684" type="curve" smooth="yes"/>
      <point x="237.953" y="217.805"/>
      <point x="285.599" y="273.965"/>
      <point x="345.007" y="365" type="curve"/>
    </contour>
  </outline>
</glyph>
<glyph name="colon" format="2">
  <advance width="206"/>
  <unicode hex="003A"/>
  <outline>
    <contour>
      <point x="118" y="112" type="curve" smooth="yes"/>
      <point x="127.334" y="121.334"/>
      <point x="127.334" y="142.666"/>
      <point x="118" y="152" type="curve" smooth="yes"/>
      <point x="108.666" y="161.334"/>
      <point x="87.3338" y="161.334"/>
      <point x="78" y="152" type="curve" smooth="yes"/>
      <point x="68.6662" y="142.666"/>
      <point x="68.6662" y="121.334"/>
      <point x="78" y="112" type="curve" smooth="yes"/>
      <point x="87.3338" y="102.666"/>
      <point x="108.666" y="102.666"/>
    </contour>
    <contour>
      <point x="118" y="272" type="curve" smooth="yes"/>
      <point x="127.334" y="281.334"/>
      <point x="127.334" y="302.666"/>
      <point x="118" y="312" type="curve" smooth="yes"/>
      <point x="108.666" y="321.334"/>
      <point x="87.3338" y="321.334"/>
      <point x="78" y="312" type="curve" smooth="yes"/>
      <point x="68.6662" y="302.666"/>
      <point x="68.6662" y="281.334"/>
      <point x="78" y="272" type="curve" smooth="yes"/>
      <point x="87.3338" y="262.666"/>
      <point x="108.666" y="262.666"/>
    </contour>
  </outline>
</glyph>
<glyph name="semicolon" format="2">
  <advance width="118"/>
  <unicode hex="003B"/>
  <outline>
    <contour>
      <point x="77" y="-10" type="curve" smooth="yes"/>
      <point x="79.4699" y="2.96687"/>
      <point x="80" y="26.8"/>
      <point x="80" y="40" type="curve"/>
      <point x="40" y="40" type="line"/>
      <point x="40" y="26.8"/>
      <point x="39.4699" y="2.96687"/>
      <point x="37" y="-10" type="curve" smooth="yes"/>
      <point x="32.8007" y="-32.0461"/>
      <point x="26.6" y="-53.55"/>
      <point x="20" y="-75" type="curve"/>
      <point x="60" y="-75" type="line"/>
      <point x="66.6" y="-53.55"/>
      <point x="72.8007" y="-32.0461"/>
    </contour>
    <contour>
      <point x="80" y="90" type="curve" smooth="yes"/>
      <point x="89.3338" y="99.3338"/>
      <point x="89.3338" y="120.666"/>
      <point x="80" y="130" type="curve" smooth="yes"/>
      <point x="70.6662" y="139.334"/>
      <point x="49.3338" y="139.334"/>
      <point x="40" y="130" type="curve" smooth="yes"/>
      <point x="30.6662" y="120.666"/>
      <point x="30.6662" y="99.3338"/>
      <point x="40" y="90" type="curve" smooth="yes"/>
      <point x="49.3338" y="80.6662"/>
      <point x="70.6662" y="80.6662"/>
    </contour>
  </outline>
</glyph>
<glyph name="less" format="2">
  <advance width="367"/>
  <unicode hex="003C"/>
  <outline>
    <contour>
      <point x="305" y="430" type="line"/>
      <point x="40" y="275.452" type="line"/>
      <point x="306" y="120" type="line"/>
      <point x="306.016" y="143.803" type="line"/>
      <point x="80" y="275.453" type="line"/>
      <point x="305" y="405.981" type="line"/>
    </contour>
  </outline>
</glyph>
<glyph name="equal" format="2">
  <advance width="510"/>
  <unicode hex="003D"/>
  <outline>
    <contour>
      <point x="130" y="160" type="line"/>
      <point x="130" y="185" type="line"/>
      <point x="430" y="185" type="line"/>
      <point x="430" y="160" type="line"/>
    </contour>
    <contour>
      <point x="130" y="321" type="line"/>
      <point x="130" y="346" type="line"/>
      <point x="430" y="346" type="line"/>
      <point x="430" y="321" type="line"/>
    </contour>
  </outline>
</glyph>
<glyph name="question" format="2">
  <advance width="421"/>
  <unicode hex="003F"/>
  <outline>
    <contour>
      <point x="100" y="130" type="line"/>
      <point x="100" y="287.599" type="line"/>
      <point x="167.8" y="351.661"/>
      <point x="298.483" y="455.746"/>
      <point x="299.03" y="553" type="curve" smooth="yes"/>
      <point x="299.61" y="656.001"/>
      <point x="216.383" y="679.94"/>
      <point x="80" y="679.94" type="curve"/>
      <point x="80" y="700" type="line"/>
      <point x="249.958" y="700"/>
      <point x="319.958" y="660"/>
      <point x="320" y="554" type="curve" smooth="yes"/>
      <point x="320.041" y="449.744"/>
      <point x="203.801" y="357.662"/>
      <point x="120" y="278.599" type="curve"/>
      <point x="120" y="130.001" type="line"/>
    </contour>
    <contour>
      <point x="130" y="0" type="curve" smooth="yes"/>
      <point x="139.334" y="9.33381"/>
      <point x="139.334" y="30.6662"/>
      <point x="130" y="40" type="curve" smooth="yes"/>
      <point x="120.666" y="49.3338"/>
      <point x="99.3338" y="49.3338"/>
      <point x="90" y="40" type="curve" smooth="yes"/>
      <point x="80.6662" y="30.6662"/>
      <point x="80.6662" y="9.33381"/>
      <point x="90" y="0" type="curve" smooth="yes"/>
      <point x="99.3338" y="-9.33381"/>
      <point x="120.666" y="-9.33381"/>
    </contour>
  </outline>
</glyph>
<glyph name="A" format="2">
  <advance width="550"/>
  <unicode hex="0041"/>
  <outline>
    <contour>
      <point x="277" y="710" type="line"/>
      <point x="30" y="710"/>
      <point x="30" y="331"/>
      <point x="30" y="0" type="curve"/>
      <point x="50" y="0" type="line"/>
      <point x="53" y="211" type="line"/>
      <point x="496" y="211" type="line"/>
      <point x="499" y="0" type="line"/>
      <point x="519" y="0" type="line"/>
      <point x="519" y="331"/>
      <point x="520" y="710"/>
      <point x="278" y="710" type="curve"/>
    </contour>
    <contour>
      <point x="55" y="231" type="line"/>
      <point x="53.3316" y="325"/>
      <point x="68" y="691"/>
      <point x="278" y="691" type="curve" smooth="yes"/>
      <point x="480" y="691"/>
      <point x="495" y="325"/>
      <point x="495" y="231" type="curve"/>
    </contour>
  </outline>
</glyph>
<glyph name="B" format="2">
  <advance width="533"/>
  <unicode hex="0042"/>
  <outline>
    <contour>
      <point x="40" y="700" type="line"/>
      <point x="270" y="700" type="line"/>
      <point x="364" y="700"/>
      <point x="431" y="635"/>
      <point x="431" y="540" type="curve" smooth="yes"/>
      <point x="431" y="485"/>
      <point x="410" y="429"/>
      <point x="341" y="397" type="curve"/>
      <point x="399" y="387"/>
      <point x="501.034" y="330"/>
      <point x="500.486" y="203" type="curve" smooth="yes"/>
      <point x="499.869" y="60"/>
      <point x="405" y="0"/>
      <point x="284" y="0" type="curve" smooth="yes"/>
      <point x="40" y="0" type="line"/>
    </contour>
    <contour>
      <point x="60" y="404" type="line"/>
      <point x="282" y="404" type="line"/>
      <point x="330" y="405"/>
      <point x="412.814" y="444"/>
      <point x="410.594" y="540.003" type="curve" smooth="yes"/>
      <point x="408.447" y="632.839"/>
      <point x="344.618" y="680"/>
      <point x="269" y="680" type="curve"/>
      <point x="60" y="680" type="line"/>
    </contour>
    <contour>
      <point x="60" y="20" type="line"/>
      <point x="284.382" y="20" type="line" smooth="yes"/>
      <point x="411.67" y="20"/>
      <point x="480.03" y="93"/>
      <point x="480" y="202.977" type="curve" smooth="yes"/>
      <point x="479.973" y="303.188"/>
      <point x="397.618" y="384"/>
      <point x="290" y="384" type="curve"/>
      <point x="60" y="384" type="line"/>
    </contour>
  </outline>
</glyph>
<glyph name="C" format="2">
  <advance width="526"/>
  <unicode hex="0043"/>
  <outline>
    <contour>
      <point x="493.168" y="79.6592" type="line"/>
      <point x="447.843" y="35.0864"/>
      <point x="390.357" y="-10"/>
      <point x="297.247" y="-10" type="curve" smooth="yes"/>
      <point x="77.2467" y="-10"/>
      <point x="46.2129" y="211.245"/>
      <point x="46" y="361.245" type="curve" smooth="yes"/>
      <point x="45.8474" y="468.786"/>
      <point x="75.1502" y="710.132"/>
      <point x="297.206" y="710.132" type="curve" smooth="yes"/>
      <point x="390.401" y="710.132"/>
      <point x="449.481" y="664.771"/>
      <point x="479.287" y="620.465" type="curve"/>
      <point x="463.979" y="607.621" type="line"/>
      <point x="429.774" y="654.727"/>
      <point x="373.16" y="689.899"/>
      <point x="297.247" y="690" type="curve" smooth="yes"/>
      <point x="97.8931" y="690.265"/>
      <point x="65.6456" y="468.786"/>
      <point x="66" y="361.245" type="curve" smooth="yes"/>
      <point x="66.5405" y="197.246"/>
      <point x="107.077" y="10"/>
      <point x="297.247" y="10" type="curve" smooth="yes"/>
      <point x="373.592" y="10"/>
      <point x="428.009" y="45.6183"/>
      <point x="477.619" y="92.6525" type="curve"/>
    </contour>
  </outline>
</glyph>
<glyph name="D" format="2">
  <advance width="537"/>
  <unicode hex="0044"/>
  <outline>
    <contour>
      <point x="40" y="700" type="line"/>
      <point x="239.809" y="700.132" type="line" smooth="yes"/>
      <point x="461.865" y="700.279"/>
      <point x="491.168" y="455"/>
      <point x="491.016" y="351.245" type="curve" smooth="yes"/>
      <point x="490.795" y="201.245"/>
      <point x="459.769" y="0"/>
      <point x="239.769" y="0" type="curve" smooth="yes"/>
      <point x="40" y="0" type="line"/>
    </contour>
    <contour>
      <point x="60" y="20" type="line"/>
      <point x="239.769" y="20" type="line" smooth="yes"/>
      <point x="432.769" y="20"/>
      <point x="470.72" y="187.246"/>
      <point x="471.113" y="351.245" type="curve" smooth="yes"/>
      <point x="471.37" y="458.786"/>
      <point x="439.122" y="680"/>
      <point x="239.769" y="680" type="curve" smooth="yes"/>
      <point x="60" y="680" type="line"/>
    </contour>
  </outline>
</glyph>
<glyph name="E" format="2">
  <advance width="452"/>
  <unicode hex="0045"/>
  <outline>
    <contour>
      <point x="110" y="700" type="curve"/>
      <point x="410" y="700" type="line"/>
      <point x="410" y="680" type="line"/>
      <point x="120" y="680" type="line"/>
      <point x="78" y="680"/>
      <point x="60.2654" y="669.876"/>
      <point x="60" y="620" type="curve"/>
      <point x="60" y="382" type="line"/>
      <point x="350" y="382" type="line"/>
      <point x="350" y="362" type="line"/>
      <point x="60" y="362" type="line"/>
      <point x="60" y="260.939" type="line"/>
      <point x="60" y="80" type="line"/>
      <point x="60" y="30"/>
      <point x="78" y="20"/>
      <point x="120" y="20" type="curve"/>
      <point x="420" y="20" type="line"/>
      <point x="420" y="0" type="line"/>
      <point x="110" y="0" type="line"/>
      <point x="50.0083" y="0"/>
      <point x="40" y="40.4353"/>
      <point x="40" y="78" type="curve"/>
      <point x="40" y="622" type="line"/>
      <point x="40.224" y="674.373"/>
      <point x="63.2225" y="700"/>
    </contour>
  </outline>
</glyph>
<glyph name="F" format="2">
  <advance width="442"/>
  <unicode hex="0046"/>
  <outline>
    <contour>
      <point x="110" y="700" type="curve"/>
      <point x="410" y="700" type="line"/>
      <point x="410" y="680" type="line"/>
      <point x="120" y="680" type="line"/>
      <point x="78" y="680"/>
      <point x="60" y="670"/>
      <point x="60" y="620" type="curve" smooth="yes"/>
      <point x="60" y="553.881"/>
      <point x="60" y="467.532"/>
      <point x="60" y="382" type="curve"/>
      <point x="350" y="382" type="line"/>
      <point x="350" y="362" type="line"/>
      <point x="60" y="362" type="line"/>
      <point x="60" y="259.897" type="line"/>
      <point x="60" y="0" type="line"/>
      <point x="40" y="0" type="line"/>
      <point x="40" y="211.526"/>
      <point x="40" y="427.484"/>
      <point x="40" y="622" type="curve" smooth="yes"/>
      <point x="40" y="659.565"/>
      <point x="50.0083" y="700"/>
    </contour>
  </outline>
</glyph>
<glyph name="G" format="2">
  <advance width="529"/>
  <unicode hex="0047"/>
  <outline>
    <contour>
      <point x="493.168" y="89.6592" type="line"/>
      <point x="447.843" y="45.0864"/>
      <point x="390.79" y="0"/>
      <point x="297" y="0" type="curve"/>
      <point x="77.2323" y="0"/>
      <point x="46.2129" y="221.246"/>
      <point x="46" y="371.245" type="curve" smooth="yes"/>
      <point x="45.8474" y="478.786"/>
      <point x="75.1502" y="720.132"/>
      <point x="297.206" y="720.132" type="curve" smooth="yes"/>
      <point x="390.401" y="720.132"/>
      <point x="449.481" y="674.771"/>
      <point x="479.287" y="630.465" type="curve"/>
      <point x="463.979" y="617.621" type="line"/>
      <point x="429.774" y="664.727"/>
      <point x="373.16" y="700"/>
      <point x="297.247" y="700" type="curve" smooth="yes"/>
      <point x="97.8932" y="700"/>
      <point x="65.6456" y="478.786"/>
      <point x="66" y="371.245" type="curve" smooth="yes"/>
      <point x="66.5405" y="207.246"/>
      <point x="107.077" y="20"/>
      <point x="297" y="20" type="curve"/>
      <point x="373.592" y="20"/>
      <point x="423.39" y="51.9659"/>
      <point x="473" y="99" type="curve"/>
      <point x="473" y="282" type="line" smooth="yes"/>
      <point x="473" y="332"/>
      <point x="455" y="342"/>
      <point x="413" y="342" type="curve" smooth="yes"/>
      <point x="246.695" y="342" type="line"/>
      <point x="246.695" y="362.11" type="line"/>
      <point x="423" y="362" type="line" smooth="yes"/>
      <point x="482.992" y="361.963"/>
      <point x="492.967" y="321.565"/>
      <point x="493" y="284" type="curve" smooth="yes"/>
    </contour>
  </outline>
</glyph>
<glyph name="H" format="2">
  <advance width="526"/>
  <unicode hex="0048"/>
  <outline>
    <contour>
      <point x="40" y="700" type="line"/>
      <point x="60" y="700" type="line"/>
      <point x="60" y="500" type="line"/>
      <point x="60" y="382" type="line"/>
      <point x="466" y="382" type="line"/>
      <point x="466" y="500" type="line"/>
      <point x="466" y="700" type="line"/>
      <point x="486" y="700" type="line"/>
      <point x="486" y="0" type="line"/>
      <point x="466" y="0" type="line"/>
      <point x="466" y="362" type="line"/>
      <point x="368.568" y="362" type="line"/>
      <point x="199.094" y="362" type="line"/>
      <point x="60" y="362" type="line"/>
      <point x="60" y="0" type="line"/>
      <point x="40" y="0" type="line"/>
    </contour>
  </outline>
</glyph>
<glyph name="I" format="2">
  <advance width="100"/>
  <unicode hex="0049"/>
  <outline>
    <contour>
      <point x="40" y="700" type="line"/>
      <point x="60" y="700" type="line"/>
      <point x="60" y="0" type="line"/>
      <point x="40" y="0" type="line"/>
    </contour>
  </outline>
</glyph>
<glyph name="J" format="2">
  <advance width="406"/>
  <unicode hex="004A"/>
  <outline>
    <contour>
      <point x="346" y="700" type="line"/>
      <point x="366" y="700" type="line"/>
      <point x="366" y="216" type="line"/>
      <point x="365.817" y="28"/>
      <point x="273" y="-10"/>
      <point x="196.769" y="-10" type="curve" smooth="yes"/>
      <point x="103.658" y="-10"/>
      <point x="66" y="35.0864"/>
      <point x="20.8474" y="79.6592" type="curve"/>
      <point x="36.3963" y="92.6525" type="line"/>
      <point x="81" y="46"/>
      <point x="120.799" y="10"/>
      <point x="196.769" y="10" type="curve" smooth="yes"/>
      <point x="284" y="10"/>
      <point x="346" y="69"/>
      <point x="346" y="210" type="curve"/>
    </contour>
  </outline>
</glyph>
<glyph name="K" format="2">
  <advance width="442"/>
  <unicode hex="004B"/>
  <outline>
    <contour>
      <point x="60" y="0" type="line"/>
      <point x="60" y="334" type="line"/>
      <point x="68" y="334" type="line"/>
      <point x="233.673" y="334"/>
      <point x="332" y="117.22"/>
      <point x="395.293" y="-0.0794983" type="curve"/>
      <point x="421.293" y="-0.0794983" type="line"/>
      <point x="347" y="137"/>
      <point x="279.258" y="289.717"/>
      <point x="141" y="342" type="curve"/>
      <point x="304.004" y="370.263"/>
      <point x="382" y="549.905"/>
      <point x="403" y="700" type="curve"/>
      <point x="382" y="700" type="line"/>
      <point x="358" y="571.43"/>
      <point x="298.413" y="352.334"/>
      <point x="60" y="354" type="curve"/>
      <point x="60" y="700" type="line"/>
      <point x="40" y="700" type="line"/>
      <point x="40" y="0" type="line"/>
    </contour>
  </outline>
</glyph>
<glyph name="L" format="2">
  <advance width="440"/>
  <unicode hex="004C"/>
  <outline>
    <contour>
      <point x="40" y="700" type="line"/>
      <point x="60" y="700" type="line"/>
      <point x="60.2911" y="80" type="line"/>
      <point x="60" y="30"/>
      <point x="78" y="20"/>
      <point x="120" y="20" type="curve"/>
      <point x="420" y="20" type="line"/>
      <point x="420" y="0" type="line"/>
      <point x="110" y="0" type="line"/>
      <point x="49.9513" y="0"/>
      <point x="40" y="40.4353"/>
      <point x="40" y="78" type="curve"/>
    </contour>
  </outline>
</glyph>
<glyph name="M" format="2">
  <advance width="629"/>
  <unicode hex="004D"/>
  <outline>
    <contour>
      <point x="322" y="200" type="curve"/>
      <point x="302" y="200" type="line"/>
      <point x="191.711" y="559.606"/>
      <point x="161" y="680.014"/>
      <point x="118.084" y="680" type="curve"/>
      <point x="54.9947" y="680.014"/>
      <point x="51.7243" y="407.946"/>
      <point x="56" y="0" type="curve"/>
      <point x="36" y="0" type="line"/>
      <point x="34.9658" y="421.003"/>
      <point x="26.0024" y="700"/>
      <point x="116" y="700" type="curve"/>
      <point x="116" y="700" type="line"/>
      <point x="183.552" y="700"/>
      <point x="206.325" y="577.424"/>
      <point x="312" y="225" type="curve"/>
      <point x="417.689" y="577.438"/>
      <point x="440.448" y="700"/>
      <point x="508" y="700" type="curve"/>
      <point x="508" y="700" type="line"/>
      <point x="598" y="700"/>
      <point x="589" y="421"/>
      <point x="588" y="0" type="curve"/>
      <point x="568" y="0" type="line"/>
      <point x="572" y="408.13"/>
      <point x="569" y="680.014"/>
      <point x="505.916" y="680" type="curve"/>
      <point x="463" y="680.014"/>
      <point x="432.258" y="559.65"/>
    </contour>
  </outline>
</glyph>
<glyph name="N" format="2">
  <advance width="531"/>
  <unicode hex="004E"/>
  <outline>
    <contour>
      <point x="475" y="700" type="curve"/>
      <point x="495" y="700" type="line"/>
      <point x="495" y="279"/>
      <point x="505" y="0"/>
      <point x="415" y="0" type="curve"/>
      <point x="415" y="0" type="line"/>
      <point x="347.616" y="0"/>
      <point x="324.92" y="120.577"/>
      <point x="265" y="318.06" type="curve" smooth="yes"/>
      <point x="191.711" y="559.606"/>
      <point x="161" y="680"/>
      <point x="118.084" y="680" type="curve"/>
      <point x="55" y="680"/>
      <point x="52" y="408.13"/>
      <point x="56" y="0" type="curve"/>
      <point x="36" y="0" type="line"/>
      <point x="35" y="421"/>
      <point x="26" y="700"/>
      <point x="116" y="700" type="curve"/>
      <point x="116" y="700" type="line"/>
      <point x="183.552" y="700"/>
      <point x="206.311" y="577.438"/>
      <point x="285" y="321.227" type="curve" smooth="yes"/>
      <point x="341.282" y="137.973"/>
      <point x="370" y="20"/>
      <point x="412.916" y="20" type="curve" smooth="yes"/>
      <point x="476" y="20"/>
      <point x="475" y="291.87"/>
    </contour>
  </outline>
</glyph>
<glyph name="O" format="2">
  <advance width="586"/>
  <unicode hex="004F"/>
  <outline>
    <contour>
      <point x="292.529" y="710.031" type="curve"/>
      <point x="292.529" y="710.031" type="line" smooth="yes"/>
      <point x="504" y="710.053"/>
      <point x="540.059" y="467.442"/>
      <point x="540.059" y="351.199" type="curve" smooth="yes"/>
      <point x="540.059" y="246.716"/>
      <point x="511.34" y="-10"/>
      <point x="292.529" y="-10" type="curve"/>
      <point x="292.529" y="-10" type="line" smooth="yes"/>
      <point x="75" y="-10.0106"/>
      <point x="45" y="233.589"/>
      <point x="45" y="349.832" type="curve" smooth="yes"/>
      <point x="45" y="455.134"/>
      <point x="73.7189" y="710.031"/>
    </contour>
    <contour>
      <point x="292.529" y="689.68" type="line"/>
      <point x="95.6913" y="690.014"/>
      <point x="65" y="455.134"/>
      <point x="65" y="349.832" type="curve" smooth="yes"/>
      <point x="65" y="221"/>
      <point x="99.0166" y="17.5421"/>
      <point x="292.529" y="9.3513" type="curve" smooth="yes"/>
      <point x="292.529" y="9.3513" type="line"/>
      <point x="489.458" y="9.3513"/>
      <point x="520" y="257.921"/>
      <point x="520" y="351.199" type="curve" smooth="yes"/>
      <point x="520" y="475.648"/>
      <point x="485.968" y="682.516"/>
      <point x="292.529" y="689.68" type="curve" smooth="yes"/>
    </contour>
  </outline>
</glyph>
<glyph name="P" format="2">
  <advance width="506"/>
  <unicode hex="0050"/>
  <outline>
    <contour>
      <point x="60" y="354" type="line"/>
      <point x="280.382" y="354" type="line"/>
      <point x="378" y="354"/>
      <point x="440.872" y="427"/>
      <point x="441" y="517.023" type="curve" smooth="yes"/>
      <point x="441.127" y="607"/>
      <point x="378" y="680"/>
      <point x="280.382" y="680" type="curve"/>
      <point x="60" y="680" type="line"/>
    </contour>
    <contour>
      <point x="280" y="334" type="curve" smooth="yes"/>
      <point x="60" y="334" type="line"/>
      <point x="60" y="0" type="line"/>
      <point x="40" y="0" type="line"/>
      <point x="40" y="700" type="line"/>
      <point x="280" y="700" type="line"/>
      <point x="371" y="700"/>
      <point x="461" y="640"/>
      <point x="461" y="517" type="curve" smooth="yes"/>
      <point x="461" y="394"/>
      <point x="371" y="334"/>
    </contour>
  </outline>
</glyph>
<glyph name="Q" format="2">
  <advance width="697"/>
  <unicode hex="0051"/>
  <outline>
    <contour>
      <point x="371" y="301" type="curve"/>
      <point x="392" y="301" type="line"/>
      <point x="425.42" y="208.27"/>
      <point x="479" y="19"/>
      <point x="596" y="19" type="curve" smooth="yes"/>
      <point x="652" y="19" type="line"/>
      <point x="652" y="0" type="line"/>
      <point x="584" y="0" type="line" smooth="yes"/>
      <point x="465.661" y="0"/>
      <point x="405" y="201.67"/>
    </contour>
    <contour>
      <point x="292.529" y="710.031" type="curve"/>
      <point x="292.529" y="710.031" type="line" smooth="yes"/>
      <point x="504" y="710.031"/>
      <point x="540.058" y="467.442"/>
      <point x="540.058" y="351.199" type="curve" smooth="yes"/>
      <point x="540.058" y="246.716"/>
      <point x="511.34" y="-10"/>
      <point x="292.529" y="-10" type="curve"/>
      <point x="292.529" y="-10" type="line" smooth="yes"/>
      <point x="75" y="-10"/>
      <point x="45" y="233.589"/>
      <point x="45" y="349.832" type="curve" smooth="yes"/>
      <point x="45" y="455.134"/>
      <point x="73.7189" y="710.031"/>
    </contour>
    <contour>
      <point x="292.529" y="689.68" type="line"/>
      <point x="95.6913" y="690.014"/>
      <point x="65" y="455.134"/>
      <point x="65" y="349.832" type="curve" smooth="yes"/>
      <point x="65" y="221"/>
      <point x="99.0181" y="17.5772"/>
      <point x="292.529" y="9.35129" type="curve" smooth="yes"/>
      <point x="292.529" y="9.35129" type="line"/>
      <point x="489.458" y="9.35129"/>
      <point x="520" y="257.921"/>
      <point x="520" y="351.199" type="curve" smooth="yes"/>
      <point x="520" y="475.648"/>
      <point x="486.001" y="682.45"/>
      <point x="292.529" y="689.68" type="curve" smooth="yes"/>
    </contour>
  </outline>
</glyph>
<glyph name="R" format="2">
  <advance width="471"/>
  <unicode hex="0052"/>
  <outline>
    <contour>
      <point x="250" y="334" type="curve" smooth="yes"/>
      <point x="155" y="334" type="line"/>
      <point x="273" y="289.298"/>
      <point x="363" y="130"/>
      <point x="451" y="0" type="curve"/>
      <point x="426" y="0" type="line"/>
      <point x="348" y="110.22"/>
      <point x="233.673" y="334"/>
      <point x="68" y="334" type="curve"/>
      <point x="60" y="334" type="line"/>
      <point x="60" y="0" type="line"/>
      <point x="40" y="0" type="line"/>
      <point x="40" y="700" type="line"/>
      <point x="250" y="700" type="line"/>
      <point x="341.183" y="700"/>
      <point x="430.886" y="640.627"/>
      <point x="431" y="517" type="curve" smooth="yes"/>
      <point x="431.113" y="394"/>
      <point x="341" y="334"/>
    </contour>
    <contour>
      <point x="60" y="354" type="line"/>
      <point x="250.382" y="354" type="line"/>
      <point x="348" y="354"/>
      <point x="410.872" y="427"/>
      <point x="411" y="517.023" type="curve" smooth="yes"/>
      <point x="411.127" y="607"/>
      <point x="348" y="680"/>
      <point x="250.382" y="680" type="curve"/>
      <point x="60" y="680" type="line"/>
    </contour>
  </outline>
</glyph>
<glyph name="S" format="2">
  <advance width="531"/>
  <unicode hex="0053"/>
  <outline>
    <contour>
      <point x="35.7227" y="77.1077" type="line"/>
      <point x="80.1735" y="33.7906"/>
      <point x="150.051" y="-10"/>
      <point x="268.463" y="-10" type="curve" smooth="yes"/>
      <point x="431.79" y="-10"/>
      <point x="494.757" y="90.5442"/>
      <point x="495.486" y="165.578" type="curve" smooth="yes"/>
      <point x="497.716" y="395"/>
      <point x="56" y="324"/>
      <point x="56" y="531.702" type="curve" smooth="yes"/>
      <point x="56" y="609"/>
      <point x="124" y="690.004"/>
      <point x="258.17" y="690" type="curve" smooth="yes"/>
      <point x="346.182" y="689.997"/>
      <point x="403" y="658"/>
      <point x="445" y="605" type="curve"/>
      <point x="460.568" y="617.494" type="line"/>
      <point x="429.068" y="660.697"/>
      <point x="365.098" y="710"/>
      <point x="262.253" y="710" type="curve" smooth="yes"/>
      <point x="98.9267" y="709.999"/>
      <point x="35.9665" y="609.457"/>
      <point x="35.2302" y="534.424" type="curve" smooth="yes"/>
      <point x="32.9985" y="307"/>
      <point x="475" y="374"/>
      <point x="475" y="168.298" type="curve" smooth="yes"/>
      <point x="475" y="87"/>
      <point x="402" y="10"/>
      <point x="272.547" y="10" type="curve" smooth="yes"/>
      <point x="168" y="10"/>
      <point x="100" y="43"/>
      <point x="51" y="90" type="curve"/>
    </contour>
  </outline>
</glyph>
<glyph name="U" format="2">
  <advance width="513"/>
  <unicode hex="0055"/>
  <outline>
    <contour>
      <point x="477" y="700" type="line"/>
      <point x="477.057" y="361.199" type="line" smooth="yes"/>
      <point x="477.076" y="245.952"/>
      <point x="478.507" y="-9.67778"/>
      <point x="259.529" y="-10" type="curve"/>
      <point x="259.529" y="-10" type="line"/>
      <point x="39.5161" y="-9.7289"/>
      <point x="40.9563" y="245.999"/>
      <point x="40.9674" y="361.085" type="curve" smooth="yes"/>
      <point x="41" y="700" type="line"/>
      <point x="62" y="700" type="line"/>
      <point x="61.0531" y="361.199" type="line" smooth="yes"/>
      <point x="60.7624" y="257.188"/>
      <point x="62.0355" y="9.24115"/>
      <point x="259.529" y="9.35125" type="curve"/>
      <point x="259.529" y="9.35125" type="line"/>
      <point x="455.963" y="9.25935"/>
      <point x="457.269" y="257.226"/>
      <point x="456.971" y="361.199" type="curve" smooth="yes"/>
      <point x="456" y="700" type="line"/>
    </contour>
  </outline>
</glyph>
<glyph name="V" format="2">
  <advance width="529"/>
  <unicode hex="0056"/>
  <outline>
    <contour>
      <point x="267.61" y="0" type="curve"/>
      <point x="267.61" y="0" type="line"/>
      <point x="316" y="0"/>
      <point x="341" y="87.7643"/>
      <point x="509" y="700" type="curve"/>
      <point x="488" y="700" type="line"/>
      <point x="335" y="139.802"/>
      <point x="297.631" y="22"/>
      <point x="268" y="22" type="curve"/>
      <point x="239" y="22"/>
      <point x="202" y="139.802"/>
      <point x="41" y="700" type="curve"/>
      <point x="20" y="700" type="line"/>
      <point x="196" y="87.8641"/>
      <point x="221" y="0"/>
    </contour>
  </outline>
</glyph>
<glyph name="W" format="2">
  <advance width="858"/>
  <unicode hex="0057"/>
  <outline>
    <contour>
      <point x="247.61" y="0" type="curve"/>
      <point x="247.6" y="0" type="line"/>
      <point x="297" y="0"/>
      <point x="305" y="84.8641"/>
      <point x="429" y="627" type="curve"/>
      <point x="553.452" y="84.8641"/>
      <point x="561.377" y="0"/>
      <point x="610.852" y="0" type="curve"/>
      <point x="610.852" y="0" type="line"/>
      <point x="655.405" y="0"/>
      <point x="669.452" y="87.8677"/>
      <point x="838" y="700" type="curve"/>
      <point x="817" y="700" type="line"/>
      <point x="660.452" y="139.795"/>
      <point x="639.119" y="21.7002"/>
      <point x="610.535" y="22.0035" type="curve"/>
      <point x="578.885" y="21.7002"/>
      <point x="565.452" y="138.218"/>
      <point x="439" y="670" type="curve"/>
      <point x="419" y="670" type="line"/>
      <point x="293" y="138.215"/>
      <point x="279.65" y="21.6967"/>
      <point x="247.937" y="22" type="curve"/>
      <point x="222" y="21.9739"/>
      <point x="198" y="139.792"/>
      <point x="41" y="700" type="curve"/>
      <point x="20" y="700" type="line"/>
      <point x="189" y="87.8641"/>
      <point x="203" y="0"/>
    </contour>
  </outline>
</glyph>
<glyph name="Y" format="2">
  <advance width="471"/>
  <unicode hex="0059"/>
  <outline>
    <contour>
      <point x="158" y="0" type="line"/>
      <point x="180" y="0" type="line"/>
      <point x="451" y="700" type="line"/>
      <point x="428" y="700" type="line"/>
      <point x="306" y="393.399"/>
      <point x="266" y="242"/>
      <point x="220" y="242" type="curve" smooth="yes"/>
      <point x="178" y="242"/>
      <point x="138" y="369.646"/>
      <point x="41" y="700" type="curve"/>
      <point x="20" y="700" type="line"/>
      <point x="145" y="273.04"/>
      <point x="171.303" y="193.718"/>
      <point x="245.453" y="229.718" type="curve"/>
    </contour>
  </outline>
</glyph>
<glyph name="Z" format="2">
  <advance width="459"/>
  <unicode hex="005A"/>
  <outline>
    <contour>
      <point x="305.383" y="700" type="line"/>
      <point x="539.173" y="699.971"/>
      <point x="286.278" y="447.789"/>
      <point x="212" y="342.702" type="curve" smooth="yes"/>
      <point x="132.641" y="230.424"/>
      <point x="-59" y="17.1989"/>
      <point x="135.99" y="19.9988" type="curve"/>
      <point x="428.578" y="19.9988" type="line"/>
      <point x="428.578" y="0" type="line"/>
      <point x="136.042" y="0" type="line"/>
      <point x="-102" y="0"/>
      <point x="125.487" y="254.685"/>
      <point x="198.327" y="358.414" type="curve" smooth="yes"/>
      <point x="277.384" y="470.997"/>
      <point x="493" y="682.801"/>
      <point x="305.383" y="680.001" type="curve"/>
      <point x="54.7935" y="679.972" type="line"/>
      <point x="54.7935" y="699.971" type="line"/>
    </contour>
  </outline>
</glyph>
<glyph name="bracketleft" format="2">
  <advance width="270"/>
  <unicode hex="005B"/>
  <outline>
    <contour>
      <point x="80" y="770" type="curve"/>
      <point x="80" y="-37" type="line"/>
      <point x="80" y="-67"/>
      <point x="100" y="-87"/>
      <point x="129.784" y="-87" type="curve"/>
      <point x="260" y="-87" type="line"/>
      <point x="260" y="-67" type="line"/>
      <point x="130.099" y="-67" type="line"/>
      <point x="110.83" y="-66.8484"/>
      <point x="100" y="-56"/>
      <point x="100" y="-37" type="curve"/>
      <point x="100" y="770" type="line"/>
      <point x="100" y="789"/>
      <point x="111" y="800"/>
      <point x="130.284" y="800" type="curve"/>
      <point x="260" y="800" type="line"/>
      <point x="260" y="820" type="line"/>
      <point x="130.377" y="820" type="line"/>
      <point x="100" y="820"/>
      <point x="80" y="800"/>
    </contour>
  </outline>
</glyph>
<glyph name="bracketright" format="2">
  <advance width="270"/>
  <unicode hex="005D"/>
  <outline>
    <contour>
      <point x="190" y="770" type="line"/>
      <point x="190" y="800"/>
      <point x="170" y="820"/>
      <point x="139.623" y="820" type="curve"/>
      <point x="10" y="820" type="line"/>
      <point x="10" y="800" type="line"/>
      <point x="139.716" y="800" type="line"/>
      <point x="159" y="800"/>
      <point x="170" y="789"/>
      <point x="170" y="770" type="curve"/>
      <point x="170" y="-37" type="line"/>
      <point x="170" y="-56"/>
      <point x="159.17" y="-66.8484"/>
      <point x="139.901" y="-67" type="curve"/>
      <point x="10" y="-67" type="line"/>
      <point x="10" y="-87" type="line"/>
      <point x="140.216" y="-87" type="line"/>
      <point x="170" y="-87"/>
      <point x="190" y="-67"/>
      <point x="190" y="-37" type="curve"/>
    </contour>
  </outline>
</glyph>
<glyph name="grave" format="2">
  <advance width="161"/>
  <unicode hex="0060"/>
  <outline>
    <contour>
      <point x="45.4962" y="633" type="curve" smooth="yes"/>
      <point x="54.8527" y="607.575"/>
      <point x="71.3162" y="587.44"/>
      <point x="86.4962" y="565" type="curve"/>
      <point x="120.496" y="565" type="line"/>
      <point x="103.996" y="589.75"/>
      <point x="86.5435" y="612.382"/>
      <point x="75.4962" y="640" type="curve" smooth="yes"/>
      <point x="69.3682" y="655.32"/>
      <point x="70.4961" y="683.5"/>
      <point x="70.4961" y="700" type="curve"/>
      <point x="40.4961" y="700" type="line"/>
      <point x="40.4961" y="681.19"/>
      <point x="39" y="650.653"/>
    </contour>
  </outline>
</glyph>
<glyph name="a" format="2">
  <advance width="472"/>
  <unicode hex="0061"/>
  <outline>
    <contour>
      <point x="442" y="500" type="curve"/>
      <point x="422" y="500" type="line"/>
      <point x="413.932" y="229.882"/>
      <point x="411" y="25"/>
      <point x="381" y="25" type="curve"/>
      <point x="353" y="25"/>
      <point x="356.392" y="193.893"/>
      <point x="356.392" y="289.003" type="curve" smooth="yes"/>
      <point x="356.392" y="411.288"/>
      <point x="315" y="500"/>
      <point x="209" y="500" type="curve" smooth="yes"/>
      <point x="93" y="500"/>
      <point x="35" y="372"/>
      <point x="35" y="250" type="curve" smooth="yes"/>
      <point x="35" y="170.998"/>
      <point x="62" y="0"/>
      <point x="205" y="0" type="curve" smooth="yes"/>
      <point x="301" y="0"/>
      <point x="338" y="100"/>
      <point x="349" y="151" type="curve"/>
      <point x="347" y="207" type="line"/>
      <point x="327" y="127"/>
      <point x="296" y="20"/>
      <point x="205" y="20" type="curve" smooth="yes"/>
      <point x="85" y="20"/>
      <point x="55" y="165.989"/>
      <point x="55" y="250" type="curve" smooth="yes"/>
      <point x="55" y="348.264"/>
      <point x="99.6848" y="479.513"/>
      <point x="209" y="480.032" type="curve" smooth="yes"/>
      <point x="297.512" y="480.453"/>
      <point x="336" y="402"/>
      <point x="336" y="285.833" type="curve" smooth="yes"/>
      <point x="336" y="200"/>
      <point x="325" y="0"/>
      <point x="381" y="0" type="curve"/>
      <point x="381" y="0" type="line"/>
      <point x="438" y="0"/>
      <point x="430.632" y="202.822"/>
    </contour>
  </outline>
</glyph>
<glyph name="b" format="2">
  <advance width="490"/>
  <unicode hex="0062"/>
  <outline>
    <contour>
      <point x="30.3163" y="750" type="line"/>
      <point x="46.6845" y="181"/>
      <point x="42" y="0"/>
      <point x="99" y="0" type="curve"/>
      <point x="100" y="0" type="line"/>
      <point x="156" y="0"/>
      <point x="144" y="200"/>
      <point x="144" y="285.833" type="curve" smooth="yes"/>
      <point x="144" y="402"/>
      <point x="192.488" y="480.453"/>
      <point x="281" y="480.033" type="curve" smooth="yes"/>
      <point x="390.315" y="479.513"/>
      <point x="435" y="348.264"/>
      <point x="435" y="250" type="curve" smooth="yes"/>
      <point x="435" y="165.989"/>
      <point x="415" y="20"/>
      <point x="285" y="20" type="curve" smooth="yes"/>
      <point x="184" y="20"/>
      <point x="153" y="127"/>
      <point x="133" y="207" type="curve"/>
      <point x="131" y="151" type="line"/>
      <point x="142" y="100"/>
      <point x="179" y="0"/>
      <point x="285" y="0" type="curve" smooth="yes"/>
      <point x="438" y="0"/>
      <point x="455" y="170.998"/>
      <point x="455" y="250" type="curve" smooth="yes"/>
      <point x="455" y="372"/>
      <point x="397" y="500"/>
      <point x="281" y="500" type="curve" smooth="yes"/>
      <point x="175" y="500"/>
      <point x="123.608" y="411.288"/>
      <point x="123.608" y="289.003" type="curve" smooth="yes"/>
      <point x="123.608" y="193.893"/>
      <point x="127" y="25"/>
      <point x="99" y="25" type="curve"/>
      <point x="69" y="25"/>
      <point x="64" y="209.882"/>
      <point x="50.3163" y="750" type="curve"/>
    </contour>
  </outline>
</glyph>
<glyph name="c" format="2">
  <advance width="338"/>
  <unicode hex="0063"/>
  <outline>
    <contour>
      <point x="317.459" y="18.8563" type="line"/>
      <point x="296.876" y="8.5225"/>
      <point x="264.888" y="-7"/>
      <point x="216" y="-7" type="curve"/>
      <point x="56" y="-7"/>
      <point x="35" y="173"/>
      <point x="35" y="258" type="curve" smooth="yes"/>
      <point x="35" y="335"/>
      <point x="56" y="507"/>
      <point x="216" y="507.04" type="curve"/>
      <point x="265.318" y="507.04"/>
      <point x="297.077" y="491"/>
      <point x="316.536" y="481.002" type="curve"/>
      <point x="305.121" y="463.853" type="line"/>
      <point x="287.728" y="472.635"/>
      <point x="260.334" y="487"/>
      <point x="216" y="487" type="curve"/>
      <point x="72.4848" y="487"/>
      <point x="55" y="335"/>
      <point x="55" y="258" type="curve" smooth="yes"/>
      <point x="55" y="167"/>
      <point x="79" y="13"/>
      <point x="216" y="13" type="curve"/>
      <point x="259.727" y="12.9539"/>
      <point x="287.885" y="27.2602"/>
      <point x="305.167" y="36.2852" type="curve"/>
    </contour>
  </outline>
</glyph>
<glyph name="d" format="2">
  <advance width="490"/>
  <unicode hex="0064"/>
  <outline>
    <contour>
      <point x="460" y="750" type="curve"/>
      <point x="440" y="750" type="line"/>
      <point x="426.316" y="209.882"/>
      <point x="421.316" y="25"/>
      <point x="391.316" y="25" type="curve"/>
      <point x="363.316" y="25"/>
      <point x="366.708" y="193.893"/>
      <point x="366.708" y="289.003" type="curve" smooth="yes"/>
      <point x="366.708" y="411.288"/>
      <point x="315.316" y="500"/>
      <point x="209.316" y="500" type="curve" smooth="yes"/>
      <point x="93.3163" y="500"/>
      <point x="35.3163" y="372"/>
      <point x="35.3163" y="250" type="curve" smooth="yes"/>
      <point x="35.3163" y="170.998"/>
      <point x="52.3163" y="0"/>
      <point x="205.316" y="0" type="curve" smooth="yes"/>
      <point x="311.316" y="0"/>
      <point x="348.316" y="100"/>
      <point x="359.316" y="151" type="curve"/>
      <point x="357.316" y="207" type="line"/>
      <point x="337.316" y="127"/>
      <point x="306.316" y="20"/>
      <point x="205.316" y="20" type="curve" smooth="yes"/>
      <point x="75.3163" y="20"/>
      <point x="55.3163" y="165.989"/>
      <point x="55.3163" y="250" type="curve" smooth="yes"/>
      <point x="55.3163" y="348.264"/>
      <point x="100.001" y="479.513"/>
      <point x="209.316" y="480.032" type="curve" smooth="yes"/>
      <point x="297.828" y="480.453"/>
      <point x="346.316" y="402"/>
      <point x="346.316" y="285.833" type="curve" smooth="yes"/>
      <point x="346.316" y="200"/>
      <point x="334.316" y="0"/>
      <point x="390.316" y="0" type="curve"/>
      <point x="391.316" y="0" type="line"/>
      <point x="448.316" y="0"/>
      <point x="443.632" y="181"/>
    </contour>
  </outline>
</glyph>
<glyph name="e" format="2">
  <advance width="395"/>
  <unicode hex="0065"/>
  <outline>
    <contour>
      <point x="357.143" y="57" type="line"/>
      <point x="324.491" y="25.1833"/>
      <point x="282.72" y="-7"/>
      <point x="216" y="-7" type="curve" smooth="yes"/>
      <point x="59" y="-7"/>
      <point x="35" y="172.999"/>
      <point x="35" y="258" type="curve" smooth="yes"/>
      <point x="35" y="335"/>
      <point x="48.7291" y="506.956"/>
      <point x="200" y="507.04" type="curve"/>
      <point x="201" y="507.04" type="line"/>
      <point x="347" y="506.04"/>
      <point x="363" y="334"/>
      <point x="363" y="278" type="curve" smooth="yes"/>
      <point x="363" y="258" type="line"/>
      <point x="48" y="258" type="line"/>
      <point x="48" y="278" type="line"/>
      <point x="342" y="278" type="line"/>
      <point x="342" y="340"/>
      <point x="323" y="486"/>
      <point x="200" y="487" type="curve"/>
      <point x="201" y="487" type="line"/>
      <point x="67.6502" y="487"/>
      <point x="55" y="335"/>
      <point x="55" y="258" type="curve" smooth="yes"/>
      <point x="55" y="167"/>
      <point x="81" y="13"/>
      <point x="216" y="13" type="curve" smooth="yes"/>
      <point x="271" y="13"/>
      <point x="305.709" y="36.4427"/>
      <point x="341.454" y="70.0403" type="curve"/>
    </contour>
  </outline>
</glyph>
<glyph name="f" format="2">
  <advance width="265"/>
  <unicode hex="0066"/>
  <outline>
    <contour>
      <point x="71" y="0" type="curve"/>
      <point x="91" y="0" type="line"/>
      <point x="83.8312" y="94.7582"/>
      <point x="73.3602" y="191.448"/>
      <point x="65.2204" y="288.121" type="curve"/>
      <point x="65.2704" y="404.521"/>
      <point x="116.15" y="492.15"/>
      <point x="204" y="490.05" type="curve" smooth="yes"/>
      <point x="227.55" y="489.45"/>
      <point x="245.6" y="486.2"/>
      <point x="263.15" y="476.85" type="curve"/>
      <point x="274.55" y="493.95" type="line"/>
      <point x="254.7" y="504.35"/>
      <point x="233.05" y="509.65"/>
      <point x="204" y="510" type="curve" smooth="yes"/>
      <point x="126.048" y="510.91"/>
      <point x="78.4357" y="459.263"/>
      <point x="58.1091" y="383.93" type="curve"/>
      <point x="54.9751" y="434.529"/>
      <point x="53" y="488.047"/>
      <point x="53" y="538" type="curve"/>
      <point x="53" y="651.1"/>
      <point x="102.9" y="737"/>
      <point x="191.35" y="737.05" type="curve" smooth="yes"/>
      <point x="213.75" y="737.05"/>
      <point x="239.55" y="733"/>
      <point x="260.15" y="723.85" type="curve"/>
      <point x="271.55" y="741" type="line"/>
      <point x="243.1" y="753.3"/>
      <point x="217.25" y="756.9"/>
      <point x="190.35" y="756.992" type="curve" smooth="yes"/>
      <point x="84.5218" y="755.157"/>
      <point x="33.1485" y="658.56"/>
      <point x="33" y="538" type="curve"/>
      <point x="32.9842" y="481.944"/>
      <point x="35.5195" y="425.189"/>
      <point x="39.3912" y="368.215" type="curve" smooth="yes"/>
      <point x="47.7723" y="244.883"/>
      <point x="62.4156" y="120.523"/>
    </contour>
  </outline>
</glyph>
<glyph name="g" format="2">
  <advance width="480"/>
  <unicode hex="0067"/>
  <outline>
    <contour>
      <point x="184.143" y="-250" type="curve"/>
      <point x="344.114" y="-250"/>
      <point x="412.505" y="-146"/>
      <point x="435.505" y="131" type="curve"/>
      <point x="416" y="140" type="line"/>
      <point x="397" y="-126"/>
      <point x="331" y="-230.1"/>
      <point x="184.143" y="-230" type="curve"/>
      <point x="129.143" y="-230.107"/>
      <point x="94.4169" y="-206.58"/>
      <point x="58.6892" y="-172.96" type="curve"/>
      <point x="43" y="-186" type="line"/>
      <point x="75.6527" y="-217.817"/>
      <point x="117.051" y="-250"/>
    </contour>
    <contour>
      <point x="450" y="500" type="curve"/>
      <point x="430" y="500" type="line"/>
      <point x="421.932" y="229.882"/>
      <point x="419" y="25"/>
      <point x="389" y="25" type="curve"/>
      <point x="361" y="25"/>
      <point x="364.392" y="193.893"/>
      <point x="364.392" y="289.003" type="curve" smooth="yes"/>
      <point x="364.392" y="411.288"/>
      <point x="313" y="500"/>
      <point x="207" y="500" type="curve" smooth="yes"/>
      <point x="91" y="500"/>
      <point x="33" y="372"/>
      <point x="33" y="250" type="curve" smooth="yes"/>
      <point x="33" y="170.998"/>
      <point x="50" y="0"/>
      <point x="203" y="0" type="curve" smooth="yes"/>
      <point x="309" y="0"/>
      <point x="346" y="100"/>
      <point x="357" y="151" type="curve"/>
      <point x="355" y="207" type="line"/>
      <point x="335" y="127"/>
      <point x="304" y="20"/>
      <point x="203" y="20" type="curve" smooth="yes"/>
      <point x="73" y="20"/>
      <point x="53" y="165.989"/>
      <point x="53" y="250" type="curve" smooth="yes"/>
      <point x="53" y="348.264"/>
      <point x="97.6848" y="479.513"/>
      <point x="207" y="480.033" type="curve" smooth="yes"/>
      <point x="295.512" y="480.453"/>
      <point x="344" y="402"/>
      <point x="344" y="285.833" type="curve" smooth="yes"/>
      <point x="344" y="200"/>
      <point x="333" y="0"/>
      <point x="389" y="0" type="curve"/>
      <point x="390" y="0" type="line"/>
      <point x="447" y="0"/>
      <point x="438.632" y="202.822"/>
    </contour>
  </outline>
</glyph>
<glyph name="h" format="2">
  <advance width="491"/>
  <unicode hex="0068"/>
  <outline>
    <contour>
      <point x="33.3163" y="750" type="line"/>
      <point x="49.6648" y="180.809"/>
      <point x="45" y="0"/>
      <point x="102" y="0" type="curve"/>
      <point x="103" y="0" type="line"/>
      <point x="159" y="0"/>
      <point x="150" y="200"/>
      <point x="150" y="285.833" type="curve" smooth="yes"/>
      <point x="150" y="402"/>
      <point x="198.488" y="488.453"/>
      <point x="287" y="488.032" type="curve" smooth="yes"/>
      <point x="423.997" y="487.382"/>
      <point x="441" y="339"/>
      <point x="441" y="241" type="curve"/>
      <point x="441" y="0" type="line"/>
      <point x="461" y="0" type="line"/>
      <point x="461" y="80.3497"/>
      <point x="461" y="161.998"/>
      <point x="461" y="241" type="curve" smooth="yes"/>
      <point x="461" y="363"/>
      <point x="437" y="508"/>
      <point x="290" y="508" type="curve" smooth="yes"/>
      <point x="181" y="508"/>
      <point x="129.608" y="411.288"/>
      <point x="129.608" y="289.003" type="curve" smooth="yes"/>
      <point x="129.608" y="193.893"/>
      <point x="130" y="25"/>
      <point x="102" y="25" type="curve"/>
      <point x="72" y="25"/>
      <point x="67.1051" y="209.936"/>
      <point x="53.3163" y="750" type="curve"/>
    </contour>
  </outline>
</glyph>
<glyph name="i" format="2">
  <advance width="161"/>
  <unicode hex="0069"/>
  <outline>
    <contour>
      <point x="83" y="500" type="line"/>
      <point x="69.13" y="428.72"/>
      <point x="54.4379" y="356.431"/>
      <point x="54" y="284" type="curve" smooth="yes"/>
      <point x="53.4324" y="190.116"/>
      <point x="67.4" y="93.72"/>
      <point x="74" y="0" type="curve"/>
      <point x="54" y="0" type="line"/>
      <point x="47.4" y="93.72"/>
      <point x="33.6199" y="190.109"/>
      <point x="34" y="284" type="curve" smooth="yes"/>
      <point x="34.293" y="356.374"/>
      <point x="48.46" y="428.72"/>
      <point x="62" y="500" type="curve"/>
    </contour>
    <contour>
      <point x="110" y="628" type="curve" smooth="yes"/>
      <point x="119.102" y="671.105"/>
      <point x="123.284" y="693.977"/>
      <point x="130.748" y="737.032" type="curve" smooth="yes"/>
      <point x="133.591" y="753.434"/>
      <point x="105.238" y="755.773"/>
      <point x="101.195" y="736.578" type="curve" smooth="yes"/>
      <point x="92.66" y="696.062"/>
      <point x="88.3294" y="672.126"/>
      <point x="80" y="627" type="curve" smooth="yes"/>
      <point x="76.9025" y="610.219"/>
      <point x="105.875" y="608.466"/>
    </contour>
  </outline>
</glyph>
<glyph name="j" format="2">
  <advance width="306"/>
  <unicode hex="006A"/>
  <outline>
    <contour>
      <point x="-30" y="-186" type="curve"/>
      <point x="-14.3108" y="-172.96" type="line"/>
      <point x="21.4169" y="-206.58"/>
      <point x="56.0522" y="-230.107"/>
      <point x="91.0747" y="-230" type="curve"/>
      <point x="206" y="-228.447"/>
      <point x="210" y="0.243611"/>
      <point x="191" y="284" type="curve" smooth="yes"/>
      <point x="186.165" y="356.212"/>
      <point x="205.46" y="428.72"/>
      <point x="219" y="500" type="curve"/>
      <point x="240" y="500" type="line"/>
      <point x="226.13" y="428.72"/>
      <point x="206.249" y="356.276"/>
      <point x="211" y="284" type="curve" smooth="yes"/>
      <point x="230" y="-5.04651"/>
      <point x="231" y="-249.974"/>
      <point x="91.1433" y="-249.974" type="curve"/>
      <point x="44.0511" y="-250"/>
      <point x="2.6647" y="-217.816"/>
    </contour>
    <contour>
      <point x="255" y="628" type="curve" smooth="yes"/>
      <point x="264.102" y="671.105"/>
      <point x="268.284" y="693.977"/>
      <point x="275.748" y="737.032" type="curve" smooth="yes"/>
      <point x="278.591" y="753.434"/>
      <point x="250.238" y="755.773"/>
      <point x="246.195" y="736.578" type="curve" smooth="yes"/>
      <point x="237.66" y="696.062"/>
      <point x="233.329" y="672.126"/>
      <point x="225" y="627" type="curve" smooth="yes"/>
      <point x="221.902" y="610.219"/>
      <point x="250.875" y="608.466"/>
    </contour>
  </outline>
</glyph>
<glyph name="k" format="2">
  <advance width="439"/>
  <unicode hex="006B"/>
  <outline>
    <contour>
      <point x="33.3163" y="750" type="line"/>
      <point x="49.6648" y="180.809"/>
      <point x="44.2214" y="0"/>
      <point x="101" y="0" type="curve"/>
      <point x="102" y="0" type="line"/>
      <point x="174.641" y="0"/>
      <point x="129.608" y="289.003"/>
      <point x="163.069" y="381.489" type="curve"/>
      <point x="225.73" y="425.044"/>
      <point x="267.115" y="273.435"/>
      <point x="391" y="0" type="curve"/>
      <point x="413" y="0" type="line"/>
      <point x="282.562" y="287.784"/>
      <point x="239.603" y="444.034"/>
      <point x="171.003" y="403.354" type="curve"/>
      <point x="177.587" y="417.328"/>
      <point x="204.957" y="488.008"/>
      <point x="287" y="488.032" type="curve" smooth="yes"/>
      <point x="341.642" y="488.049"/>
      <point x="377.536" y="464.535"/>
      <point x="402.454" y="430.992" type="curve"/>
      <point x="418.143" y="444.035" type="line"/>
      <point x="396.047" y="475.845"/>
      <point x="354.08" y="508.005"/>
      <point x="287" y="508" type="curve" smooth="yes"/>
      <point x="180.971" y="507.992"/>
      <point x="129.788" y="411.301"/>
      <point x="129.608" y="289.003" type="curve"/>
      <point x="129.608" y="193.893"/>
      <point x="130" y="25"/>
      <point x="102" y="25" type="curve"/>
      <point x="72" y="25"/>
      <point x="67.0917" y="209.948"/>
      <point x="53.3163" y="750" type="curve"/>
    </contour>
  </outline>
</glyph>
<glyph name="l" format="2">
  <advance width="121"/>
  <unicode hex="006C"/>
  <outline>
    <contour>
      <point x="82" y="750" type="line"/>
      <point x="68.13" y="678.72"/>
      <point x="53" y="606.432"/>
      <point x="53" y="534" type="curve" smooth="yes"/>
      <point x="53" y="357.335"/>
      <point x="78.46" y="176.22"/>
      <point x="91" y="0" type="curve"/>
      <point x="71" y="0" type="line"/>
      <point x="58.46" y="176.22"/>
      <point x="33" y="357.334"/>
      <point x="33" y="534" type="curve" smooth="yes"/>
      <point x="33" y="606.375"/>
      <point x="47.46" y="678.72"/>
      <point x="61" y="750" type="curve"/>
    </contour>
  </outline>
</glyph>
<glyph name="m" format="2">
  <advance width="721"/>
  <unicode hex="006D"/>
  <outline>
    <contour>
      <point x="30" y="503.5" type="line"/>
      <point x="41.35" y="206.35"/>
      <point x="33.8088" y="0"/>
      <point x="91" y="0.5" type="curve"/>
      <point x="92" y="0.5167" type="line"/>
      <point x="147.876" y="0"/>
      <point x="139" y="200.5"/>
      <point x="139" y="286.35" type="curve" smooth="yes"/>
      <point x="139" y="412.5"/>
      <point x="187.501" y="492.052"/>
      <point x="256" y="491.55" type="curve" smooth="yes"/>
      <point x="353.771" y="490.834"/>
      <point x="383.162" y="382.112"/>
      <point x="389" y="285" type="curve"/>
      <point x="390" y="244.5" type="line"/>
      <point x="390" y="0" type="line"/>
      <point x="410" y="0" type="line"/>
      <point x="410" y="244.5" type="line"/>
      <point x="409" y="285.85" type="line"/>
      <point x="409" y="352.71"/>
      <point x="425.071" y="409.733"/>
      <point x="453.684" y="445.984" type="curve" smooth="yes"/>
      <point x="474.777" y="472.708"/>
      <point x="502.687" y="488.144"/>
      <point x="536" y="487.909" type="curve" smooth="yes"/>
      <point x="653" y="487.085"/>
      <point x="670.002" y="339"/>
      <point x="670.002" y="241" type="curve" smooth="yes"/>
      <point x="670.002" y="0" type="line"/>
      <point x="690.002" y="0" type="line"/>
      <point x="690.002" y="241" type="line" smooth="yes"/>
      <point x="690.002" y="363"/>
      <point x="666.002" y="508"/>
      <point x="539" y="508" type="curve" smooth="yes"/>
      <point x="466.057" y="508"/>
      <point x="416.513" y="452"/>
      <point x="397.544" y="371.341" type="curve"/>
      <point x="379.079" y="448.892"/>
      <point x="335.595" y="511.5"/>
      <point x="259" y="511.5" type="curve" smooth="yes"/>
      <point x="170" y="511.5"/>
      <point x="118.6" y="421.8"/>
      <point x="118.6" y="289.5" type="curve" smooth="yes"/>
      <point x="118.6" y="194.4"/>
      <point x="119" y="25.5004"/>
      <point x="91" y="25.5004" type="curve" smooth="yes"/>
      <point x="61" y="25.5004"/>
      <point x="59" y="233.4"/>
      <point x="50" y="503.5" type="curve"/>
    </contour>
  </outline>
</glyph>
<glyph name="n" format="2">
  <advance width="480"/>
  <unicode hex="006E"/>
  <outline>
    <contour>
      <point x="30" y="500" type="line"/>
      <point x="41.3682" y="202.822"/>
      <point x="34" y="0"/>
      <point x="91" y="0" type="curve"/>
      <point x="92" y="0" type="line"/>
      <point x="148" y="0"/>
      <point x="139" y="200"/>
      <point x="139" y="285.833" type="curve" smooth="yes"/>
      <point x="139" y="402"/>
      <point x="187.488" y="488.453"/>
      <point x="276" y="488.032" type="curve" smooth="yes"/>
      <point x="412.997" y="487.382"/>
      <point x="430" y="339"/>
      <point x="430" y="241" type="curve"/>
      <point x="430" y="0" type="line"/>
      <point x="450" y="0" type="line"/>
      <point x="450" y="80.3497"/>
      <point x="450" y="161.998"/>
      <point x="450" y="241" type="curve" smooth="yes"/>
      <point x="450" y="363"/>
      <point x="426" y="508"/>
      <point x="279" y="508" type="curve" smooth="yes"/>
      <point x="170" y="508"/>
      <point x="118.608" y="411.288"/>
      <point x="118.608" y="289.003" type="curve" smooth="yes"/>
      <point x="118.608" y="193.893"/>
      <point x="119" y="25"/>
      <point x="91" y="25" type="curve"/>
      <point x="61" y="25"/>
      <point x="59" y="229.882"/>
      <point x="50" y="500" type="curve"/>
    </contour>
  </outline>
</glyph>
<glyph name="o" format="2">
  <advance width="432"/>
  <unicode hex="006F"/>
  <outline>
    <contour>
      <point x="216" y="509" type="curve"/>
      <point x="216" y="509" type="line" smooth="yes"/>
      <point x="376" y="509"/>
      <point x="397" y="336"/>
      <point x="397" y="251" type="curve" smooth="yes"/>
      <point x="397" y="174.599"/>
      <point x="376" y="-8"/>
      <point x="216" y="-8" type="curve"/>
      <point x="216" y="-8" type="line" smooth="yes"/>
      <point x="56" y="-8"/>
      <point x="35" y="165"/>
      <point x="35" y="250" type="curve" smooth="yes"/>
      <point x="35" y="327"/>
      <point x="56" y="509"/>
    </contour>
    <contour>
      <point x="216" y="489" type="line"/>
      <point x="72.0668" y="489.245"/>
      <point x="55" y="327"/>
      <point x="55" y="250" type="curve" smooth="yes"/>
      <point x="55" y="159"/>
      <point x="79" y="12"/>
      <point x="216" y="12" type="curve" smooth="yes"/>
      <point x="216" y="12" type="line"/>
      <point x="360" y="12"/>
      <point x="377" y="182.792"/>
      <point x="377" y="251" type="curve" smooth="yes"/>
      <point x="377" y="342"/>
      <point x="353" y="489"/>
      <point x="216" y="489" type="curve" smooth="yes"/>
    </contour>
  </outline>
</glyph>
<glyph name="p" format="2">
  <advance width="485"/>
  <unicode hex="0070"/>
  <outline>
    <contour>
      <point x="33" y="500" type="line"/>
      <point x="44.3682" y="-47.178"/>
      <point x="36" y="-250.005"/>
      <point x="94" y="-250.005" type="curve"/>
      <point x="94" y="-250.005" type="line"/>
      <point x="151" y="-250.005"/>
      <point x="139" y="-32"/>
      <point x="139" y="285.833" type="curve" smooth="yes"/>
      <point x="139" y="402"/>
      <point x="187.488" y="488.453"/>
      <point x="276" y="488.032" type="curve" smooth="yes"/>
      <point x="385.315" y="487.513"/>
      <point x="430" y="348.264"/>
      <point x="430" y="250" type="curve" smooth="yes"/>
      <point x="430" y="165.989"/>
      <point x="410" y="20"/>
      <point x="280" y="20" type="curve" smooth="yes"/>
      <point x="179" y="20"/>
      <point x="148" y="127"/>
      <point x="128" y="207" type="curve"/>
      <point x="126" y="151" type="line"/>
      <point x="137" y="100"/>
      <point x="174" y="0"/>
      <point x="280" y="0" type="curve" smooth="yes"/>
      <point x="433" y="0"/>
      <point x="450" y="170.998"/>
      <point x="450" y="250" type="curve" smooth="yes"/>
      <point x="450" y="372"/>
      <point x="392" y="508"/>
      <point x="276" y="508" type="curve" smooth="yes"/>
      <point x="170" y="508"/>
      <point x="118.608" y="411.288"/>
      <point x="118.608" y="289.003" type="curve" smooth="yes"/>
      <point x="118.608" y="-38.1066"/>
      <point x="120" y="-225.005"/>
      <point x="94" y="-225.005" type="curve"/>
      <point x="65" y="-225.005"/>
      <point x="61.0682" y="-20.118"/>
      <point x="53" y="500" type="curve"/>
    </contour>
  </outline>
</glyph>
<glyph name="q" format="2">
  <advance width="482"/>
  <unicode hex="0071"/>
  <outline>
    <contour>
      <point x="452" y="500" type="curve"/>
      <point x="432" y="500" type="line"/>
      <point x="423.932" y="-20.118"/>
      <point x="420" y="-225.005"/>
      <point x="391" y="-225.005" type="curve"/>
      <point x="365" y="-225.005"/>
      <point x="366.391" y="-38.1066"/>
      <point x="366.391" y="289.003" type="curve" smooth="yes"/>
      <point x="366.391" y="411.288"/>
      <point x="315" y="508"/>
      <point x="209" y="508" type="curve" smooth="yes"/>
      <point x="93" y="508"/>
      <point x="35" y="372"/>
      <point x="35" y="250" type="curve" smooth="yes"/>
      <point x="35" y="170.998"/>
      <point x="52" y="0"/>
      <point x="205" y="0" type="curve" smooth="yes"/>
      <point x="311" y="0"/>
      <point x="348" y="100"/>
      <point x="359" y="151" type="curve"/>
      <point x="357" y="207" type="line"/>
      <point x="337" y="127"/>
      <point x="306" y="20"/>
      <point x="205" y="20" type="curve" smooth="yes"/>
      <point x="75" y="20"/>
      <point x="55" y="165.989"/>
      <point x="55" y="250" type="curve" smooth="yes"/>
      <point x="55" y="348.264"/>
      <point x="99.6848" y="487.513"/>
      <point x="209" y="488.032" type="curve" smooth="yes"/>
      <point x="297.512" y="488.453"/>
      <point x="346" y="402"/>
      <point x="346" y="285.833" type="curve" smooth="yes"/>
      <point x="346" y="-32"/>
      <point x="334" y="-250.005"/>
      <point x="391" y="-250.005" type="curve"/>
      <point x="391" y="-250.005" type="line"/>
      <point x="449" y="-250.005"/>
      <point x="440.632" y="-47.178"/>
    </contour>
  </outline>
</glyph>
<glyph name="r" format="2">
  <advance width="327"/>
  <unicode hex="0072"/>
  <outline>
    <contour>
      <point x="346.536" y="492.002" type="line"/>
      <point x="326.659" y="502.181"/>
      <point x="304.618" y="508.025"/>
      <point x="276" y="508" type="curve"/>
      <point x="170" y="508"/>
      <point x="118.608" y="411.288"/>
      <point x="118.608" y="289.003" type="curve" smooth="yes"/>
      <point x="118.608" y="193.893"/>
      <point x="119" y="25"/>
      <point x="91" y="25" type="curve"/>
      <point x="61" y="25"/>
      <point x="59" y="229.882"/>
      <point x="50" y="500" type="curve"/>
      <point x="30" y="500" type="line"/>
      <point x="41.3682" y="202.822"/>
      <point x="34" y="0"/>
      <point x="91" y="0" type="curve"/>
      <point x="92" y="0" type="line"/>
      <point x="148" y="0"/>
      <point x="139" y="200"/>
      <point x="139" y="285.833" type="curve" smooth="yes"/>
      <point x="139" y="402"/>
      <point x="187.488" y="488.453"/>
      <point x="276" y="488.032" type="curve"/>
      <point x="299.707" y="488.022"/>
      <point x="317.885" y="483.598"/>
      <point x="335.167" y="474.853" type="curve"/>
    </contour>
  </outline>
</glyph>
<glyph name="s" format="2">
  <advance width="399"/>
  <unicode hex="0073"/>
  <outline>
    <contour>
      <point x="31" y="53" type="line"/>
      <point x="63.659" y="21.174"/>
      <point x="115" y="-11"/>
      <point x="202" y="-11" type="curve" smooth="yes"/>
      <point x="322" y="-11"/>
      <point x="368.255" y="62.8723"/>
      <point x="368.799" y="118.001" type="curve" smooth="yes"/>
      <point x="370.437" y="284"/>
      <point x="51" y="242.001"/>
      <point x="51" y="387.001" type="curve" smooth="yes"/>
      <point x="51" y="442.132"/>
      <point x="100.44" y="498.003"/>
      <point x="194.437" y="498" type="curve" smooth="yes"/>
      <point x="259.102" y="497.998"/>
      <point x="302" y="470.483"/>
      <point x="327.454" y="437" type="curve"/>
      <point x="343.143" y="450.035" type="line"/>
      <point x="320" y="481.776"/>
      <point x="273" y="518.002"/>
      <point x="197.437" y="518" type="curve" smooth="yes"/>
      <point x="77.4374" y="518"/>
      <point x="31.1821" y="444.129"/>
      <point x="30.6381" y="389" type="curve" smooth="yes"/>
      <point x="28.9984" y="222.837"/>
      <point x="348" y="265"/>
      <point x="348" y="120" type="curve" smooth="yes"/>
      <point x="348" y="64.8686"/>
      <point x="299" y="9"/>
      <point x="205" y="9" type="curve" smooth="yes"/>
      <point x="130" y="9"/>
      <point x="82.4176" y="32.4214"/>
      <point x="46.6892" y="66.0403" type="curve"/>
    </contour>
  </outline>
</glyph>
<glyph name="t" format="2">
  <advance width="251"/>
  <unicode hex="0074"/>
  <outline>
    <contour>
      <point x="42.6085" y="291.003" type="line"/>
      <point x="42.6085" y="413.288"/>
      <point x="92.7874" y="509.893"/>
      <point x="200" y="510" type="curve" smooth="yes"/>
      <point x="228.745" y="510.029"/>
      <point x="251.291" y="504.013"/>
      <point x="270.536" y="494.002" type="curve"/>
      <point x="258.757" y="476.885" type="line"/>
      <point x="241.834" y="486.49"/>
      <point x="223.707" y="490.032"/>
      <point x="200" y="490.032" type="curve" smooth="yes"/>
      <point x="111.525" y="490.032"/>
      <point x="62.6299" y="404.085"/>
      <point x="62.6299" y="287.917" type="curve"/>
    </contour>
    <contour>
      <point x="79" y="700" type="line"/>
      <point x="68.13" y="644.72"/>
      <point x="53" y="572.432"/>
      <point x="53" y="500" type="curve" smooth="yes"/>
      <point x="53" y="323.335"/>
      <point x="78.46" y="142.22"/>
      <point x="88" y="0" type="curve"/>
      <point x="68" y="0" type="line"/>
      <point x="58.46" y="142.22"/>
      <point x="33" y="323.334"/>
      <point x="33" y="500" type="curve" smooth="yes"/>
      <point x="33" y="572.375"/>
      <point x="47.46" y="644.72"/>
      <point x="58" y="700" type="curve"/>
    </contour>
  </outline>
</glyph>
<glyph name="u" format="2">
  <advance width="480"/>
  <unicode hex="0075"/>
  <outline>
    <contour>
      <point x="450" y="8" type="line"/>
      <point x="438.632" y="305.178"/>
      <point x="446" y="508"/>
      <point x="389" y="508" type="curve"/>
      <point x="389" y="508" type="line"/>
      <point x="333" y="508"/>
      <point x="341" y="308"/>
      <point x="341" y="222.167" type="curve" smooth="yes"/>
      <point x="341" y="106"/>
      <point x="292.512" y="19.547"/>
      <point x="204" y="19.9675" type="curve" smooth="yes"/>
      <point x="67.0031" y="20.6183"/>
      <point x="50" y="169"/>
      <point x="50" y="267" type="curve"/>
      <point x="50" y="508" type="line"/>
      <point x="30" y="508" type="line"/>
      <point x="30" y="427.65"/>
      <point x="30" y="346.002"/>
      <point x="30" y="267" type="curve" smooth="yes"/>
      <point x="30" y="145"/>
      <point x="54" y="0"/>
      <point x="201" y="0" type="curve" smooth="yes"/>
      <point x="310" y="0"/>
      <point x="361.392" y="96.7119"/>
      <point x="361.392" y="218.997" type="curve" smooth="yes"/>
      <point x="361.392" y="314.107"/>
      <point x="361" y="483"/>
      <point x="389" y="483" type="curve"/>
      <point x="419" y="483"/>
      <point x="421" y="278.118"/>
      <point x="430" y="8" type="curve"/>
    </contour>
  </outline>
</glyph>
<glyph name="v" format="2">
  <advance width="444"/>
  <unicode hex="0076"/>
  <outline>
    <contour>
      <point x="21" y="216" type="curve"/>
      <point x="41" y="216" type="line"/>
      <point x="41" y="270.118"/>
      <point x="37.9798" y="475.014"/>
      <point x="68" y="475" type="curve"/>
      <point x="89" y="475"/>
      <point x="109.582" y="372.296"/>
      <point x="139.635" y="263.024" type="curve" smooth="yes"/>
      <point x="187.836" y="87.7643"/>
      <point x="204.39" y="0"/>
      <point x="249" y="0" type="curve"/>
      <point x="248.61" y="0" type="line"/>
      <point x="294.845" y="0"/>
      <point x="311.389" y="87.7643"/>
      <point x="359.585" y="262.607" type="curve" smooth="yes"/>
      <point x="389.811" y="372.259"/>
      <point x="407" y="436.526"/>
      <point x="424" y="500" type="curve"/>
      <point x="403" y="500" type="line"/>
      <point x="380.721" y="420.269"/>
      <point x="361.228" y="344.157"/>
      <point x="340.22" y="269.815" type="curve" smooth="yes"/>
      <point x="305.698" y="147.646"/>
      <point x="278.631" y="20"/>
      <point x="249" y="20" type="curve" smooth="yes"/>
      <point x="220" y="20"/>
      <point x="193.552" y="147.598"/>
      <point x="159" y="269.815" type="curve" smooth="yes"/>
      <point x="106.56" y="455.304"/>
      <point x="108" y="500"/>
      <point x="68" y="500" type="curve"/>
      <point x="67" y="500" type="line"/>
      <point x="10" y="500"/>
      <point x="21" y="297.178"/>
    </contour>
  </outline>
</glyph>
<glyph name="w" format="2">
  <advance width="690"/>
  <unicode hex="0077"/>
  <outline>
    <contour>
      <point x="21" y="216" type="curve"/>
      <point x="41" y="216" type="line"/>
      <point x="41" y="270.1"/>
      <point x="38" y="475"/>
      <point x="68" y="475" type="curve" smooth="yes"/>
      <point x="89" y="475"/>
      <point x="107" y="372.915"/>
      <point x="133.65" y="263" type="curve" smooth="yes"/>
      <point x="176.238" y="87.3511"/>
      <point x="191" y="0"/>
      <point x="233.6" y="0" type="curve" smooth="yes"/>
      <point x="233.61" y="0" type="line"/>
      <point x="281.85" y="0"/>
      <point x="290" y="87.7464"/>
      <point x="328.6" y="262.6" type="curve" smooth="yes"/>
      <point x="348.229" y="351.519"/>
      <point x="359.626" y="409.111"/>
      <point x="373.708" y="461.6" type="curve"/>
      <point x="387.79" y="409.111"/>
      <point x="399.182" y="351.528"/>
      <point x="418.816" y="262.6" type="curve" smooth="yes"/>
      <point x="458" y="85.119"/>
      <point x="465.56" y="0"/>
      <point x="513.796" y="0" type="curve" smooth="yes"/>
      <point x="513.806" y="0" type="line"/>
      <point x="556.416" y="0"/>
      <point x="574.936" y="86.4792"/>
      <point x="613.816" y="262.6" type="curve" smooth="yes"/>
      <point x="633.445" y="351.519"/>
      <point x="646.84" y="409.136"/>
      <point x="669.216" y="500" type="curve"/>
      <point x="648.216" y="500" type="line"/>
      <point x="627.916" y="420.25"/>
      <point x="612.113" y="345.019"/>
      <point x="594.416" y="269.8" type="curve" smooth="yes"/>
      <point x="565.568" y="147.187"/>
      <point x="542" y="19.9739"/>
      <point x="513.416" y="20" type="curve" smooth="yes"/>
      <point x="481.766" y="20.0289"/>
      <point x="467" y="147.658"/>
      <point x="438.216" y="269.8" type="curve" smooth="yes"/>
      <point x="393.998" y="457.433"/>
      <point x="393" y="467.65"/>
      <point x="384" y="500" type="curve"/>
      <point x="363" y="500" type="line"/>
      <point x="340.7" y="420.25"/>
      <point x="326.583" y="345.092"/>
      <point x="309.2" y="269.8" type="curve" smooth="yes"/>
      <point x="281" y="147.658"/>
      <point x="265.65" y="20"/>
      <point x="234" y="20" type="curve" smooth="yes"/>
      <point x="207" y="20"/>
      <point x="181.848" y="147.187"/>
      <point x="153" y="269.8" type="curve" smooth="yes"/>
      <point x="109" y="456.816"/>
      <point x="107" y="500"/>
      <point x="67" y="500" type="curve" smooth="yes"/>
      <point x="67" y="500" type="line"/>
      <point x="10" y="500"/>
      <point x="21" y="297.2"/>
    </contour>
  </outline>
</glyph>
<glyph name="x" format="2">
  <advance width="467"/>
  <unicode hex="0078"/>
  <outline>
    <contour>
      <point x="26" y="284" type="curve"/>
      <point x="46" y="284" type="line"/>
      <point x="46" y="293.039"/>
      <point x="38" y="479"/>
      <point x="79" y="479" type="curve" smooth="yes"/>
      <point x="110" y="479"/>
      <point x="128" y="425"/>
      <point x="219.964" y="249.304" type="curve"/>
      <point x="59" y="0" type="line"/>
      <point x="84" y="0" type="line"/>
      <point x="232.69" y="232.065" type="line"/>
      <point x="335.439" y="33.2712"/>
      <point x="347.44" y="-0.720367"/>
      <point x="388.439" y="-0.728867" type="curve"/>
      <point x="388.439" y="-0.728867" type="line"/>
      <point x="451.433" y="-0.724667"/>
      <point x="440.797" y="201.884"/>
      <point x="440.439" y="215.271" type="curve"/>
      <point x="420.439" y="215.271" type="line"/>
      <point x="420.439" y="206.232"/>
      <point x="428.422" y="20.2033"/>
      <point x="387.439" y="20.2711" type="curve"/>
      <point x="356.579" y="20.29"/>
      <point x="338.383" y="74.3222"/>
      <point x="246.433" y="249.913" type="curve"/>
      <point x="408" y="500" type="line"/>
      <point x="383" y="500" type="line"/>
      <point x="233.749" y="267.206" type="line"/>
      <point x="131" y="466"/>
      <point x="119" y="500"/>
      <point x="78" y="500" type="curve"/>
      <point x="78" y="500" type="line"/>
      <point x="15" y="500"/>
      <point x="26" y="297.178"/>
    </contour>
  </outline>
</glyph>
<glyph name="y" format="2">
  <advance width="462"/>
  <unicode hex="0079"/>
  <outline>
    <contour>
      <point x="61" y="216" type="curve"/>
      <point x="81" y="216" type="line"/>
      <point x="81" y="270.118"/>
      <point x="77.9798" y="475"/>
      <point x="108" y="475" type="curve"/>
      <point x="128.881" y="474.996"/>
      <point x="149.569" y="372.343"/>
      <point x="179.635" y="263.024" type="curve" smooth="yes"/>
      <point x="237.936" y="51.0404"/>
      <point x="255.752" y="-17.6018"/>
      <point x="309" y="7.11656" type="curve"/>
      <point x="286" y="-58.8834"/>
      <point x="242" y="-230"/>
      <point x="121.983" y="-230" type="curve" smooth="yes"/>
      <point x="66.9832" y="-230"/>
      <point x="32.257" y="-206.58"/>
      <point x="-3.47073" y="-172.96" type="curve"/>
      <point x="-19.16" y="-186" type="line"/>
      <point x="13.4928" y="-217.817"/>
      <point x="54.8244" y="-250"/>
      <point x="121.983" y="-250" type="curve" smooth="yes"/>
      <point x="282.715" y="-250"/>
      <point x="320" y="-31.64"/>
      <point x="399.585" y="262.606" type="curve"/>
      <point x="429.811" y="372.258"/>
      <point x="444.971" y="436.506"/>
      <point x="462" y="500" type="curve"/>
      <point x="441" y="500" type="line"/>
      <point x="418.725" y="420.272"/>
      <point x="401.257" y="344.147"/>
      <point x="380.22" y="269.815" type="curve"/>
      <point x="345.698" y="147.646"/>
      <point x="325" y="22"/>
      <point x="293" y="22" type="curve" smooth="yes"/>
      <point x="263" y="22"/>
      <point x="233.552" y="147.646"/>
      <point x="199" y="269.815" type="curve" smooth="yes"/>
      <point x="146.543" y="455.291"/>
      <point x="146.904" y="500"/>
      <point x="107" y="500" type="curve"/>
      <point x="107" y="500" type="line"/>
      <point x="50" y="500"/>
      <point x="61" y="297.178"/>
    </contour>
  </outline>
</glyph>
<glyph name="z" format="2">
  <advance width="345"/>
  <unicode hex="007A"/>
  <outline>
    <contour>
      <point x="227" y="500.021" type="line"/>
      <point x="394" y="500"/>
      <point x="220.724" y="319.863"/>
      <point x="167.666" y="244.797" type="curve" smooth="yes"/>
      <point x="110.979" y="164.596"/>
      <point x="-19" y="18"/>
      <point x="106" y="20" type="curve"/>
      <point x="315" y="20" type="line"/>
      <point x="315" y="0" type="line"/>
      <point x="106.037" y="0" type="line"/>
      <point x="-64" y="0"/>
      <point x="98.4973" y="181.926"/>
      <point x="150.528" y="256.021" type="curve" smooth="yes"/>
      <point x="207" y="336.44"/>
      <point x="347" y="482.021"/>
      <point x="227" y="480.021" type="curve"/>
      <point x="48" y="480" type="line"/>
      <point x="48" y="500" type="line"/>
    </contour>
  </outline>
</glyph>
<glyph name="braceleft" format="2">
  <advance width="330"/>
  <unicode hex="007B"/>
  <outline>
    <contour>
      <point x="140" y="770" type="curve"/>
      <point x="140" y="447.309" type="line"/>
      <point x="60" y="376.642" type="line"/>
      <point x="60" y="356.729" type="line"/>
      <point x="140" y="287.213" type="line"/>
      <point x="140" y="-37" type="line"/>
      <point x="140" y="-67"/>
      <point x="160" y="-87"/>
      <point x="189.784" y="-87" type="curve"/>
      <point x="320" y="-87" type="line"/>
      <point x="320" y="-67" type="line"/>
      <point x="190.099" y="-67" type="line"/>
      <point x="170.83" y="-66.8484"/>
      <point x="160" y="-56"/>
      <point x="160" y="-37" type="curve"/>
      <point x="160" y="297.385" type="line"/>
      <point x="80" y="365.881" type="line"/>
      <point x="80" y="368.421" type="line"/>
      <point x="160" y="436.872" type="line"/>
      <point x="160" y="770" type="line"/>
      <point x="160" y="789"/>
      <point x="171" y="800"/>
      <point x="190.284" y="800" type="curve"/>
      <point x="320" y="800" type="line"/>
      <point x="320" y="820" type="line"/>
      <point x="190.377" y="820" type="line"/>
      <point x="160" y="820"/>
      <point x="140" y="800"/>
    </contour>
  </outline>
</glyph>
<glyph name="bar" format="2">
  <advance width="260"/>
  <unicode hex="007C"/>
  <outline>
    <contour>
      <point x="120" y="750" type="line"/>
      <point x="120" y="-250" type="line"/>
      <point x="140" y="-250" type="line"/>
      <point x="140" y="750" type="line"/>
    </contour>
  </outline>
</glyph>
<glyph name="asciitilde" format="2">
  <advance width="310"/>
  <unicode hex="007E"/>
  <outline>
    <contour>
      <point x="50" y="213" type="line"/>
      <point x="68.15" y="226.563"/>
      <point x="85.3774" y="239.368"/>
      <point x="108" y="238.101" type="curve" smooth="yes"/>
      <point x="135.984" y="236.534"/>
      <point x="163.017" y="212.59"/>
      <point x="191" y="211" type="curve" smooth="yes"/>
      <point x="213.602" y="209.716"/>
      <point x="231.85" y="223.47"/>
      <point x="250" y="237" type="curve"/>
      <point x="250" y="262.318" type="line"/>
      <point x="231.85" y="248.788"/>
      <point x="213.603" y="235.054"/>
      <point x="191" y="236.318" type="curve" smooth="yes"/>
      <point x="162.986" y="237.885"/>
      <point x="135.835" y="261.749"/>
      <point x="107.821" y="263.318" type="curve" smooth="yes"/>
      <point x="85.2655" y="264.581"/>
      <point x="68.0909" y="251.848"/>
      <point x="50" y="238.318" type="curve"/>
    </contour>
  </outline>
</glyph>
<glyph name="exclamdown" format="2">
  <advance width="236"/>
  <unicode hex="00A1"/>
  <outline>
    <contour>
      <point x="108" y="500" type="curve" smooth="yes"/>
      <point x="98.6662" y="490.666"/>
      <point x="98.6662" y="469.334"/>
      <point x="108" y="460" type="curve" smooth="yes"/>
      <point x="117.334" y="450.666"/>
      <point x="138.666" y="450.666"/>
      <point x="148" y="460" type="curve" smooth="yes"/>
      <point x="157.334" y="469.334"/>
      <point x="157.334" y="490.666"/>
      <point x="148" y="500" type="curve" smooth="yes"/>
      <point x="138.666" y="509.334"/>
      <point x="117.334" y="509.334"/>
    </contour>
    <contour>
      <point x="138" y="370" type="line"/>
      <point x="138" y="-200" type="line"/>
      <point x="118" y="-200" type="line"/>
      <point x="118" y="370" type="line"/>
    </contour>
  </outline>
</glyph>
<glyph name="dieresis" format="2">
  <advance width="196"/>
  <unicode hex="00A8"/>
  <outline>
    <contour>
      <point x="158" y="710" type="curve" smooth="yes"/>
      <point x="167.334" y="719.334"/>
      <point x="167.334" y="740.666"/>
      <point x="158" y="750" type="curve" smooth="yes"/>
      <point x="148.666" y="759.334"/>
      <point x="127.334" y="759.334"/>
      <point x="118" y="750" type="curve" smooth="yes"/>
      <point x="108.666" y="740.666"/>
      <point x="108.666" y="719.334"/>
      <point x="118" y="710" type="curve" smooth="yes"/>
      <point x="127.334" y="700.666"/>
      <point x="148.666" y="700.666"/>
    </contour>
    <contour>
      <point x="78" y="710" type="curve" smooth="yes"/>
      <point x="87.3338" y="719.334"/>
      <point x="87.3338" y="740.666"/>
      <point x="78" y="750" type="curve" smooth="yes"/>
      <point x="68.6662" y="759.334"/>
      <point x="47.3338" y="759.334"/>
      <point x="38" y="750" type="curve" smooth="yes"/>
      <point x="28.6662" y="740.666"/>
      <point x="28.6662" y="719.334"/>
      <point x="38" y="710" type="curve" smooth="yes"/>
      <point x="47.3338" y="700.666"/>
      <point x="68.6662" y="700.666"/>
    </contour>
  </outline>
</glyph>
<glyph name="acute" format="2">
  <advance width="161"/>
  <unicode hex="00B4"/>
  <outline>
    <contour>
      <point x="115" y="633" type="curve" smooth="yes"/>
      <point x="121.496" y="650.653"/>
      <point x="120" y="681.19"/>
      <point x="120" y="700" type="curve"/>
      <point x="90" y="700" type="line"/>
      <point x="90" y="683.5"/>
      <point x="91.1279" y="655.32"/>
      <point x="85" y="640" type="curve" smooth="yes"/>
      <point x="73.9527" y="612.382"/>
      <point x="56.5" y="589.75"/>
      <point x="40" y="565" type="curve"/>
      <point x="74" y="565" type="line"/>
      <point x="89.18" y="587.44"/>
      <point x="105.644" y="607.575"/>
    </contour>
  </outline>
</glyph>
<glyph name="periodcentered" format="2">
  <advance width="282"/>
  <unicode hex="00B7"/>
  <outline>
    <contour>
      <point x="186" y="207" type="curve" smooth="yes"/>
      <point x="207.001" y="228.001"/>
      <point x="207.001" y="275.999"/>
      <point x="186" y="297" type="curve" smooth="yes"/>
      <point x="164.999" y="318.001"/>
      <point x="117.001" y="318.001"/>
      <point x="96" y="297" type="curve" smooth="yes"/>
      <point x="74.9989" y="275.999"/>
      <point x="74.9989" y="228.001"/>
      <point x="96" y="207" type="curve" smooth="yes"/>
      <point x="117.001" y="185.999"/>
      <point x="164.999" y="185.999"/>
    </contour>
  </outline>
</glyph>
<glyph name="cedilla" format="2">
  <advance width="101"/>
  <unicode hex="00B8"/>
  <outline>
    <contour>
      <point x="77.2199" y="-56.8752" type="curve" smooth="yes"/>
      <point x="79.8267" y="-40.5824"/>
      <point x="80.2199" y="-13.3752"/>
      <point x="80.2199" y="3.1248" type="curve"/>
      <point x="40.2199" y="3.1248" type="line"/>
      <point x="40.2199" y="-13.3752"/>
      <point x="39.8267" y="-40.5824"/>
      <point x="37.2199" y="-56.8752" type="curve" smooth="yes"/>
      <point x="33.1731" y="-82.1684"/>
      <point x="26.8199" y="-107.125"/>
      <point x="20.2199" y="-131.875" type="curve"/>
      <point x="60.2199" y="-131.875" type="line"/>
      <point x="66.8199" y="-107.125"/>
      <point x="73.1731" y="-82.1684"/>
    </contour>
  </outline>
</glyph>
<glyph name="questiondown" format="2">
  <advance width="421"/>
  <unicode hex="00BF"/>
  <outline>
    <contour>
      <point x="290.041" y="493" type="curve" smooth="yes"/>
      <point x="280.707" y="483.666"/>
      <point x="280.707" y="462.334"/>
      <point x="290.041" y="453" type="curve" smooth="yes"/>
      <point x="299.374" y="443.666"/>
      <point x="320.707" y="443.666"/>
      <point x="330.041" y="453" type="curve" smooth="yes"/>
      <point x="339.374" y="462.334"/>
      <point x="339.374" y="483.666"/>
      <point x="330.041" y="493" type="curve" smooth="yes"/>
      <point x="320.707" y="502.334"/>
      <point x="299.374" y="502.334"/>
    </contour>
    <contour>
      <point x="320.041" y="363" type="line"/>
      <point x="320.041" y="205.401" type="line"/>
      <point x="252.241" y="141.339"/>
      <point x="121.558" y="37.2544"/>
      <point x="121.01" y="-60" type="curve" smooth="yes"/>
      <point x="120.431" y="-163.001"/>
      <point x="203.658" y="-186.94"/>
      <point x="340.041" y="-186.94" type="curve"/>
      <point x="340.041" y="-207" type="line"/>
      <point x="170.083" y="-207"/>
      <point x="100.082" y="-167"/>
      <point x="100.041" y="-61" type="curve" smooth="yes"/>
      <point x="100" y="43.2555"/>
      <point x="216.24" y="135.338"/>
      <point x="300.041" y="214.401" type="curve"/>
      <point x="300.041" y="362.999" type="line"/>
    </contour>
  </outline>
</glyph>
<glyph name="AE" format="2">
  <advance width="831"/>
  <unicode hex="00C6"/>
  <outline>
    <contour>
      <point x="419" y="700" type="line"/>
      <point x="419" y="622" type="line"/>
      <point x="419" y="78" type="line"/>
      <point x="419" y="0" type="line"/>
      <point x="799" y="0" type="line"/>
      <point x="799" y="20" type="line"/>
      <point x="439" y="20" type="line"/>
      <point x="439" y="80" type="line"/>
      <point x="439" y="260.939" type="line"/>
      <point x="439" y="362" type="line"/>
      <point x="729" y="362" type="line"/>
      <point x="729" y="382" type="line"/>
      <point x="439" y="382" type="line"/>
      <point x="439" y="620" type="line"/>
      <point x="439" y="680" type="line"/>
      <point x="789" y="680" type="line"/>
      <point x="789" y="700" type="line"/>
    </contour>
    <contour>
      <point x="277" y="700" type="line"/>
      <point x="30" y="700"/>
      <point x="30" y="331"/>
      <point x="30" y="0" type="curve"/>
      <point x="50" y="0" type="line"/>
      <point x="53" y="211" type="line"/>
      <point x="419" y="211" type="line"/>
      <point x="419" y="0" type="line"/>
      <point x="439" y="0" type="line"/>
      <point x="438.528" y="700" type="line"/>
      <point x="278" y="700" type="line"/>
    </contour>
    <contour>
      <point x="55" y="231" type="line"/>
      <point x="53.3316" y="325"/>
      <point x="68" y="681"/>
      <point x="278" y="681" type="curve"/>
      <point x="418.5" y="680" type="line"/>
      <point x="419" y="231" type="line"/>
    </contour>
  </outline>
</glyph>
<glyph name="Eth" format="2">
  <advance width="537"/>
  <unicode hex="00D0"/>
  <outline>
    <component base="D"/>
    <contour>
      <point x="0" y="347" type="line"/>
      <point x="0" y="367" type="line"/>
      <point x="200" y="367" type="line"/>
      <point x="200" y="347" type="line"/>
    </contour>
  </outline>
</glyph>
<glyph name="Thorn" format="2">
  <advance width="506"/>
  <unicode hex="00DE"/>
  <outline>
    <contour>
      <point x="280" y="174" type="curve" smooth="yes"/>
      <point x="60" y="174" type="line"/>
      <point x="60" y="0" type="line"/>
      <point x="40" y="0" type="line"/>
      <point x="40" y="700" type="line"/>
      <point x="60" y="700" type="line"/>
      <point x="60" y="540" type="line"/>
      <point x="280" y="540" type="line" smooth="yes"/>
      <point x="371" y="540"/>
      <point x="461" y="480"/>
      <point x="461" y="357" type="curve" smooth="yes"/>
      <point x="461" y="234"/>
      <point x="371" y="174"/>
    </contour>
    <contour>
      <point x="60" y="194" type="line"/>
      <point x="280.4" y="194" type="line" smooth="yes"/>
      <point x="378" y="194"/>
      <point x="440.85" y="267"/>
      <point x="441" y="357" type="curve" smooth="yes"/>
      <point x="441.15" y="447"/>
      <point x="378" y="520"/>
      <point x="280.4" y="520" type="curve" smooth="yes"/>
      <point x="60" y="520" type="line"/>
    </contour>
  </outline>
</glyph>
<glyph name="ae" format="2">
  <advance width="775"/>
  <unicode hex="00E6"/>
  <outline>
    <contour>
      <point x="436" y="278" type="curve"/>
      <point x="416" y="278" type="line"/>
      <point x="413.932" y="229.882"/>
      <point x="411" y="25"/>
      <point x="381" y="25" type="curve"/>
      <point x="353" y="25"/>
      <point x="356.392" y="193.893"/>
      <point x="356.392" y="289.003" type="curve" smooth="yes"/>
      <point x="356.392" y="411.288"/>
      <point x="315" y="500"/>
      <point x="209" y="500" type="curve" smooth="yes"/>
      <point x="93" y="500"/>
      <point x="35" y="372"/>
      <point x="35" y="250" type="curve" smooth="yes"/>
      <point x="35" y="170.998"/>
      <point x="62" y="0"/>
      <point x="205" y="0" type="curve" smooth="yes"/>
      <point x="301" y="0"/>
      <point x="338" y="100"/>
      <point x="349" y="151" type="curve"/>
      <point x="347" y="207" type="line"/>
      <point x="327" y="127"/>
      <point x="296" y="20"/>
      <point x="205" y="20" type="curve" smooth="yes"/>
      <point x="85" y="20"/>
      <point x="55" y="165.989"/>
      <point x="55" y="250" type="curve" smooth="yes"/>
      <point x="55" y="348.264"/>
      <point x="99.6848" y="479.513"/>
      <point x="209" y="480.032" type="curve" smooth="yes"/>
      <point x="297.512" y="480.453"/>
      <point x="336" y="402"/>
      <point x="336" y="285.833" type="curve" smooth="yes"/>
      <point x="336" y="200"/>
      <point x="325" y="0"/>
      <point x="381" y="0" type="curve"/>
      <point x="381" y="0" type="line"/>
      <point x="438" y="0"/>
      <point x="430.632" y="202.822"/>
    </contour>
    <contour>
      <point x="737.143" y="57" type="curve"/>
      <point x="721.454" y="70.0403" type="line"/>
      <point x="685.709" y="36.4427"/>
      <point x="651" y="13"/>
      <point x="596" y="13" type="curve" smooth="yes"/>
      <point x="461" y="13"/>
      <point x="435" y="167"/>
      <point x="435" y="258" type="curve" smooth="yes"/>
      <point x="435" y="335"/>
      <point x="447.65" y="487"/>
      <point x="581" y="487" type="curve"/>
      <point x="580" y="487" type="line"/>
      <point x="703" y="486"/>
      <point x="722" y="340"/>
      <point x="722" y="278" type="curve"/>
      <point x="428" y="278" type="line"/>
      <point x="428" y="258" type="line"/>
      <point x="743" y="258" type="line"/>
      <point x="743" y="278" type="line" smooth="yes"/>
      <point x="743" y="334"/>
      <point x="727" y="506.04"/>
      <point x="581" y="507.04" type="curve"/>
      <point x="580" y="507.04" type="line"/>
      <point x="428.729" y="506.956"/>
      <point x="415" y="335"/>
      <point x="415" y="258" type="curve" smooth="yes"/>
      <point x="415" y="172.999"/>
      <point x="439" y="-7"/>
      <point x="596" y="-7" type="curve" smooth="yes"/>
      <point x="662.72" y="-7"/>
      <point x="704.491" y="25.1833"/>
    </contour>
  </outline>
</glyph>
<glyph name="divide" format="2">
  <advance width="300"/>
  <unicode hex="00F7"/>
  <outline>
    <component base="minus"/>
    <contour>
      <point x="170" y="128" type="curve" smooth="yes"/>
      <point x="179.334" y="137.334"/>
      <point x="179.334" y="158.666"/>
      <point x="170" y="168" type="curve" smooth="yes"/>
      <point x="160.666" y="177.334"/>
      <point x="139.334" y="177.334"/>
      <point x="130" y="168" type="curve" smooth="yes"/>
      <point x="120.666" y="158.666"/>
      <point x="120.666" y="137.334"/>
      <point x="130" y="128" type="curve" smooth="yes"/>
      <point x="139.334" y="118.666"/>
      <point x="160.666" y="118.666"/>
    </contour>
    <contour>
      <point x="170" y="298" type="curve" smooth="yes"/>
      <point x="179.334" y="307.334"/>
      <point x="179.334" y="328.666"/>
      <point x="170" y="338" type="curve" smooth="yes"/>
      <point x="160.666" y="347.334"/>
      <point x="139.334" y="347.334"/>
      <point x="130" y="338" type="curve" smooth="yes"/>
      <point x="120.666" y="328.666"/>
      <point x="120.666" y="307.334"/>
      <point x="130" y="298" type="curve" smooth="yes"/>
      <point x="139.334" y="288.666"/>
      <point x="160.666" y="288.666"/>
    </contour>
  </outline>
</glyph>
<glyph name="oslash" format="2">
  <advance width="432"/>
  <unicode hex="00F8"/>
  <outline>
    <component base="o"/>
    <contour>
      <point x="130.826" y="-99" type="line"/>
      <point x="270.174" y="601" type="line"/>
      <point x="291.174" y="601" type="line"/>
      <point x="151.826" y="-99" type="line"/>
    </contour>
  </outline>
</glyph>
<glyph name="aogonek" format="2">
  <advance width="472"/>
  <unicode hex="0105"/>
  <outline>
    <component base="a"/>
    <contour>
      <point x="370.012" y="2.8616" type="line"/>
      <point x="355.784" y="-38.6441" type="line" smooth="yes"/>
      <point x="345.471" y="-68.7312"/>
      <point x="360.89" y="-97.2978"/>
      <point x="393" y="-90" type="curve" smooth="yes"/>
      <point x="437" y="-80" type="line"/>
      <point x="437" y="-60" type="line"/>
      <point x="396" y="-70" type="line" smooth="yes"/>
      <point x="375.619" y="-74.9709"/>
      <point x="367.632" y="-65.4337"/>
      <point x="375.361" y="-42.1929" type="curve" smooth="yes"/>
      <point x="390.012" y="1.86159" type="line"/>
    </contour>
  </outline>
</glyph>
<glyph name="dotlessi" format="2">
  <advance width="113"/>
  <unicode hex="0131"/>
  <outline>
    <contour>
      <point x="83" y="500" type="line"/>
      <point x="69.13" y="428.72"/>
      <point x="54.4379" y="356.431"/>
      <point x="54" y="284" type="curve" smooth="yes"/>
      <point x="53.4324" y="190.116"/>
      <point x="67.4" y="93.72"/>
      <point x="74" y="0" type="curve"/>
      <point x="54" y="0" type="line"/>
      <point x="47.4" y="93.72"/>
      <point x="33.6199" y="190.109"/>
      <point x="34" y="284" type="curve" smooth="yes"/>
      <point x="34.293" y="356.374"/>
      <point x="48.46" y="428.72"/>
      <point x="62" y="500" type="curve"/>
    </contour>
  </outline>
</glyph>
<glyph name="jcircumflex" format="2">
  <advance width="270"/>
  <unicode hex="0135"/>
  <outline>
    <component base="circumflex" xOffset="105.67" yOffset="-50"/>
    <contour>
      <point x="-30" y="-186" type="curve"/>
      <point x="-14.3108" y="-172.96" type="line"/>
      <point x="21.4169" y="-206.58"/>
      <point x="56.0522" y="-230.107"/>
      <point x="91.0747" y="-230" type="curve" smooth="yes"/>
      <point x="206" y="-228.447"/>
      <point x="210" y="0.243611"/>
      <point x="191" y="284" type="curve" smooth="yes"/>
      <point x="186.165" y="356.212"/>
      <point x="205.46" y="428.72"/>
      <point x="219" y="500" type="curve"/>
      <point x="240" y="500" type="line"/>
      <point x="226.13" y="428.72"/>
      <point x="206.249" y="356.276"/>
      <point x="211" y="284" type="curve" smooth="yes"/>
      <point x="230" y="-5.04651"/>
      <point x="231" y="-249.974"/>
      <point x="91.1433" y="-249.974" type="curve" smooth="yes"/>
      <point x="44.0511" y="-250"/>
      <point x="2.6647" y="-217.816"/>
    </contour>
  </outline>
</glyph>
<glyph name="Tcedilla" format="2">
  <advance width="440"/>
  <unicode hex="0162"/>
  <outline>
    <component base="T"/>
    <contour>
      <point x="227.982" y="-39" type="curve" smooth="yes"/>
      <point x="230.452" y="-26.0331"/>
      <point x="229.982" y="-12.2"/>
      <point x="229.982" y="1" type="curve"/>
      <point x="209.982" y="1" type="line"/>
      <point x="209.982" y="-12.2"/>
      <point x="210.452" y="-26.0331"/>
      <point x="207.982" y="-39" type="curve" smooth="yes"/>
      <point x="203.783" y="-61.0461"/>
      <point x="196.582" y="-82.55"/>
      <point x="189.982" y="-104" type="curve"/>
      <point x="209.982" y="-104" type="line"/>
      <point x="216.582" y="-82.55"/>
      <point x="223.783" y="-61.0461"/>
    </contour>
  </outline>
</glyph>
<glyph name="tcedilla" format="2">
  <advance width="251"/>
  <unicode hex="0163"/>
  <outline>
    <component base="t"/>
    <contour>
      <point x="86" y="-39.8667" type="curve" smooth="yes"/>
      <point x="88.4699" y="-26.8998"/>
      <point x="88" y="-13.0667"/>
      <point x="88" y="0.133347" type="curve"/>
      <point x="68" y="0.133347" type="line"/>
      <point x="68" y="-13.0667"/>
      <point x="68.4699" y="-26.8998"/>
      <point x="66" y="-39.8667" type="curve" smooth="yes"/>
      <point x="61.8008" y="-61.9127"/>
      <point x="54.6" y="-83.4167"/>
      <point x="48" y="-104.867" type="curve"/>
      <point x="68" y="-104.867" type="line"/>
      <point x="74.6" y="-83.4167"/>
      <point x="81.8008" y="-61.9127"/>
    </contour>
  </outline>
</glyph>
<glyph name="breve" format="2">
  <advance width="185"/>
  <unicode hex="02D8"/>
  <outline>
    <contour>
      <point x="30" y="749.5" type="line"/>
      <point x="30.0857" y="714.665"/>
      <point x="57.7924" y="687.347"/>
      <point x="92.5" y="687" type="curve" smooth="yes"/>
      <point x="126.897" y="686.656"/>
      <point x="154.665" y="714.789"/>
      <point x="155" y="749.5" type="curve"/>
      <point x="134.708" y="749.994" type="line"/>
      <point x="134.832" y="726.937"/>
      <point x="115.993" y="706.599"/>
      <point x="92.9334" y="706.599" type="curve" smooth="yes"/>
      <point x="69.8664" y="706.599"/>
      <point x="49.911" y="726.813"/>
      <point x="50.1456" y="750.232" type="curve"/>
    </contour>
  </outline>
</glyph>
<glyph name="dotaccent" format="2">
  <advance width="96"/>
  <unicode hex="02D9"/>
  <outline>
    <contour>
      <point x="68" y="703" type="curve" smooth="yes"/>
      <point x="77.3338" y="712.334"/>
      <point x="77.3338" y="733.666"/>
      <point x="68" y="743" type="curve" smooth="yes"/>
      <point x="58.6662" y="752.334"/>
      <point x="37.3338" y="752.334"/>
      <point x="28" y="743" type="curve" smooth="yes"/>
      <point x="18.6662" y="733.666"/>
      <point x="18.6662" y="712.334"/>
      <point x="28" y="703" type="curve" smooth="yes"/>
      <point x="37.3338" y="693.666"/>
      <point x="58.6662" y="693.666"/>
    </contour>
  </outline>
</glyph>
<glyph name="tilde" format="2">
  <advance width="220"/>
  <unicode hex="02DC"/>
  <outline>
    <contour>
      <point x="20" y="631" type="line"/>
      <point x="38.15" y="644.563"/>
      <point x="52.3774" y="657.368"/>
      <point x="75" y="656.101" type="curve" smooth="yes"/>
      <point x="102.984" y="654.534"/>
      <point x="117.017" y="630.59"/>
      <point x="145" y="629" type="curve" smooth="yes"/>
      <point x="167.602" y="627.716"/>
      <point x="181.85" y="641.47"/>
      <point x="200" y="655" type="curve"/>
      <point x="200" y="680.318" type="line"/>
      <point x="181.85" y="666.788"/>
      <point x="167.603" y="653.054"/>
      <point x="145" y="654.318" type="curve" smooth="yes"/>
      <point x="116.986" y="655.885"/>
      <point x="102.835" y="679.749"/>
      <point x="74.8209" y="681.318" type="curve" smooth="yes"/>
      <point x="52.2655" y="682.581"/>
      <point x="38.0909" y="669.848"/>
      <point x="20" y="656.318" type="curve"/>
    </contour>
  </outline>
</glyph>
<glyph name="endash" format="2">
  <advance width="300"/>
  <unicode hex="2013"/>
  <outline>
    <contour>
      <point x="50" y="226" type="line"/>
      <point x="50" y="251" type="line"/>
      <point x="250" y="251" type="line"/>
      <point x="250" y="226" type="line"/>
    </contour>
  </outline>
</glyph>
<glyph name="quoteleft" format="2">
  <advance width="150"/>
  <unicode hex="2018"/>
  <outline>
    <contour>
      <point x="53" y="625" type="curve" smooth="yes"/>
      <point x="50.3932" y="608.707"/>
      <point x="50" y="591.5"/>
      <point x="50" y="575" type="curve"/>
      <point x="80" y="575" type="line"/>
      <point x="80" y="591.5"/>
      <point x="80.3932" y="608.707"/>
      <point x="83" y="625" type="curve" smooth="yes"/>
      <point x="87.0469" y="650.293"/>
      <point x="93.4" y="675.25"/>
      <point x="100" y="700" type="curve"/>
      <point x="70" y="700" type="line"/>
      <point x="63.4" y="675.25"/>
      <point x="57.0469" y="650.293"/>
    </contour>
  </outline>
</glyph>
<glyph name="quoteright" format="2">
  <advance width="150"/>
  <unicode hex="2019"/>
  <outline>
    <contour>
      <point x="97" y="650" type="curve" smooth="yes"/>
      <point x="99.6068" y="666.293"/>
      <point x="100" y="683.5"/>
      <point x="100" y="700" type="curve"/>
      <point x="70" y="700" type="line"/>
      <point x="70" y="683.5"/>
      <point x="69.6068" y="666.293"/>
      <point x="67" y="650" type="curve" smooth="yes"/>
      <point x="62.9531" y="624.707"/>
      <point x="56.6" y="599.75"/>
      <point x="50" y="575" type="curve"/>
      <point x="80" y="575" type="line"/>
      <point x="86.6" y="599.75"/>
      <point x="92.9531" y="624.707"/>
    </contour>
  </outline>
</glyph>
<glyph name="quotesinglbase" format="2">
  <advance width="141"/>
  <unicode hex="201A"/>
  <outline>
    <contour>
      <point x="97.2199" y="0.1248" type="curve" smooth="yes"/>
      <point x="99.8267" y="16.4176"/>
      <point x="100.22" y="33.6248"/>
      <point x="100.22" y="50.1248" type="curve"/>
      <point x="70.2199" y="50.1248" type="line"/>
      <point x="70.2199" y="33.6248"/>
      <point x="69.8267" y="16.4176"/>
      <point x="67.2199" y="0.1248" type="curve" smooth="yes"/>
      <point x="63.1731" y="-25.1684"/>
      <point x="56.8199" y="-50.1252"/>
      <point x="50.2199" y="-74.8752" type="curve"/>
      <point x="80.2199" y="-74.8752" type="line"/>
      <point x="86.8199" y="-50.1252"/>
      <point x="93.1731" y="-25.1684"/>
    </contour>
  </outline>
</glyph>
<glyph name="quotedblleft" format="2">
  <advance width="220"/>
  <unicode hex="201C"/>
  <outline>
    <contour>
      <point x="133" y="625" type="curve" smooth="yes"/>
      <point x="130.393" y="608.707"/>
      <point x="130" y="591.5"/>
      <point x="130" y="575" type="curve"/>
      <point x="150" y="575" type="line"/>
      <point x="150" y="591.5"/>
      <point x="150.393" y="608.707"/>
      <point x="153" y="625" type="curve" smooth="yes"/>
      <point x="157.047" y="650.293"/>
      <point x="163.4" y="675.25"/>
      <point x="170" y="700" type="curve"/>
      <point x="150" y="700" type="line"/>
      <point x="143.4" y="675.25"/>
      <point x="137.047" y="650.293"/>
    </contour>
    <contour>
      <point x="53" y="625" type="curve" smooth="yes"/>
      <point x="50.3932" y="608.707"/>
      <point x="50" y="591.5"/>
      <point x="50" y="575" type="curve"/>
      <point x="70" y="575" type="line"/>
      <point x="70" y="591.5"/>
      <point x="70.3932" y="608.707"/>
      <point x="73" y="625" type="curve" smooth="yes"/>
      <point x="77.0469" y="650.293"/>
      <point x="83.4" y="675.25"/>
      <point x="90" y="700" type="curve"/>
      <point x="70" y="700" type="line"/>
      <point x="63.4" y="675.25"/>
      <point x="57.0469" y="650.293"/>
    </contour>
  </outline>
</glyph>
<glyph name="quotedblright" format="2">
  <advance width="220"/>
  <unicode hex="201D"/>
  <outline>
    <contour>
      <point x="87" y="650" type="curve" smooth="yes"/>
      <point x="89.6068" y="666.293"/>
      <point x="90" y="683.5"/>
      <point x="90" y="700" type="curve"/>
      <point x="70" y="700" type="line"/>
      <point x="70" y="683.5"/>
      <point x="69.6068" y="666.293"/>
      <point x="67" y="650" type="curve" smooth="yes"/>
      <point x="62.9531" y="624.707"/>
      <point x="56.6" y="599.75"/>
      <point x="50" y="575" type="curve"/>
      <point x="70" y="575" type="line"/>
      <point x="76.6" y="599.75"/>
      <point x="82.9531" y="624.707"/>
    </contour>
    <contour>
      <point x="167" y="650" type="curve" smooth="yes"/>
      <point x="169.607" y="666.293"/>
      <point x="170" y="683.5"/>
      <point x="170" y="700" type="curve"/>
      <point x="150" y="700" type="line"/>
      <point x="150" y="683.5"/>
      <point x="149.607" y="666.293"/>
      <point x="147" y="650" type="curve" smooth="yes"/>
      <point x="142.953" y="624.707"/>
      <point x="136.6" y="599.75"/>
      <point x="130" y="575" type="curve"/>
      <point x="150" y="575" type="line"/>
      <point x="156.6" y="599.75"/>
      <point x="162.953" y="624.707"/>
    </contour>
  </outline>
</glyph>
<glyph name="quotedblbase" format="2">
  <advance width="221"/>
  <unicode hex="201E"/>
  <outline>
    <contour>
      <point x="97.2199" y="0.1248" type="curve" smooth="yes"/>
      <point x="99.8267" y="16.4176"/>
      <point x="100.22" y="33.6248"/>
      <point x="100.22" y="50.1248" type="curve"/>
      <point x="70.2199" y="50.1248" type="line"/>
      <point x="70.2199" y="33.6248"/>
      <point x="69.8267" y="16.4176"/>
      <point x="67.2199" y="0.1248" type="curve" smooth="yes"/>
      <point x="63.1731" y="-25.1684"/>
      <point x="56.8199" y="-50.1252"/>
      <point x="50.2199" y="-74.8752" type="curve"/>
      <point x="80.2199" y="-74.8752" type="line"/>
      <point x="86.8199" y="-50.1252"/>
      <point x="93.1731" y="-25.1684"/>
    </contour>
    <contour>
      <point x="177.22" y="0.1248" type="curve" smooth="yes"/>
      <point x="179.827" y="16.4176"/>
      <point x="180.22" y="33.6248"/>
      <point x="180.22" y="50.1248" type="curve"/>
      <point x="150.22" y="50.1248" type="line"/>
      <point x="150.22" y="33.6248"/>
      <point x="149.827" y="16.4176"/>
      <point x="147.22" y="0.1248" type="curve" smooth="yes"/>
      <point x="143.173" y="-25.1684"/>
      <point x="136.82" y="-50.1252"/>
      <point x="130.22" y="-74.8752" type="curve"/>
      <point x="160.22" y="-74.8752" type="line"/>
      <point x="166.82" y="-50.1252"/>
      <point x="173.173" y="-25.1684"/>
    </contour>
  </outline>
</glyph>
<glyph name="bullet" format="2">
  <advance width="350"/>
  <unicode hex="2022"/>
  <outline>
    <contour>
      <point x="215" y="242" type="curve" smooth="yes"/>
      <point x="233.668" y="260.668"/>
      <point x="233.668" y="303.332"/>
      <point x="215" y="322" type="curve" smooth="yes"/>
      <point x="196.332" y="340.668"/>
      <point x="153.668" y="340.668"/>
      <point x="135" y="322" type="curve" smooth="yes"/>
      <point x="116.332" y="303.332"/>
      <point x="116.332" y="260.668"/>
      <point x="135" y="242" type="curve" smooth="yes"/>
      <point x="153.668" y="223.332"/>
      <point x="196.332" y="223.332"/>
    </contour>
  </outline>
</glyph>
<glyph name="perthousand" format="2">
  <advance width="947"/>
  <unicode hex="2030"/>
  <outline>
    <contour>
      <point x="152" y="0" type="line"/>
      <point x="491.348" y="700" type="line"/>
      <point x="514.348" y="700" type="line"/>
      <point x="175" y="0" type="line"/>
    </contour>
    <contour>
      <point x="495.326" y="405.984" type="curve"/>
      <point x="495.326" y="405.984" type="line" smooth="yes"/>
      <point x="598.45" y="405.995"/>
      <point x="618.942" y="268.127"/>
      <point x="618.942" y="202.07" type="curve" smooth="yes"/>
      <point x="618.942" y="142.695"/>
      <point x="602.621" y="-3.18984"/>
      <point x="495.326" y="-3.18984" type="curve"/>
      <point x="495.326" y="-3.18984" type="line" smooth="yes"/>
      <point x="388.758" y="-3.19504"/>
      <point x="371.71" y="135.236"/>
      <point x="371.71" y="201.293" type="curve" smooth="yes"/>
      <point x="371.71" y="261.134"/>
      <point x="388.03" y="405.985"/>
    </contour>
    <contour>
      <point x="495.326" y="386.419" type="line"/>
      <point x="408.516" y="386.61"/>
      <point x="392.075" y="260.134"/>
      <point x="392.075" y="201.293" type="curve" smooth="yes"/>
      <point x="392.075" y="129.082"/>
      <point x="413.328" y="16.807"/>
      <point x="495.326" y="16.807" type="curve"/>
      <point x="495.326" y="16.807" type="line"/>
      <point x="585.187" y="16.807"/>
      <point x="598.543" y="150.062"/>
      <point x="598.543" y="202.07" type="curve" smooth="yes"/>
      <point x="598.543" y="271.79"/>
      <point x="575.385" y="386.419"/>
      <point x="495.326" y="386.419" type="curve"/>
    </contour>
    <contour>
      <point x="169.326" y="699.984" type="curve"/>
      <point x="169.326" y="699.984" type="line" smooth="yes"/>
      <point x="272.45" y="699.995"/>
      <point x="292.942" y="562.127"/>
      <point x="292.942" y="496.07" type="curve" smooth="yes"/>
      <point x="292.942" y="436.694"/>
      <point x="276.621" y="290.81"/>
      <point x="169.326" y="290.81" type="curve"/>
      <point x="169.326" y="290.81" type="line" smooth="yes"/>
      <point x="62.7579" y="290.805"/>
      <point x="45.7097" y="429.236"/>
      <point x="45.7097" y="495.293" type="curve" smooth="yes"/>
      <point x="45.7097" y="555.134"/>
      <point x="62.0299" y="699.985"/>
    </contour>
    <contour>
      <point x="169.326" y="680.419" type="line"/>
      <point x="82.5162" y="680.61"/>
      <point x="66.0752" y="554.134"/>
      <point x="66.0752" y="495.293" type="curve" smooth="yes"/>
      <point x="66.0752" y="423.082"/>
      <point x="87.3283" y="310.807"/>
      <point x="169.326" y="310.807" type="curve"/>
      <point x="169.326" y="310.807" type="line"/>
      <point x="259.187" y="310.807"/>
      <point x="272.543" y="444.062"/>
      <point x="272.543" y="496.07" type="curve" smooth="yes"/>
      <point x="272.543" y="565.79"/>
      <point x="249.385" y="680.419"/>
      <point x="169.326" y="680.419" type="curve"/>
    </contour>
    <contour>
      <point x="778.326" y="405.984" type="curve"/>
      <point x="778.326" y="405.984" type="line" smooth="yes"/>
      <point x="881.45" y="405.995"/>
      <point x="901.942" y="268.127"/>
      <point x="901.942" y="202.07" type="curve" smooth="yes"/>
      <point x="901.942" y="142.695"/>
      <point x="885.621" y="-3.18984"/>
      <point x="778.326" y="-3.18984" type="curve"/>
      <point x="778.326" y="-3.18984" type="line" smooth="yes"/>
      <point x="671.758" y="-3.19504"/>
      <point x="654.71" y="135.236"/>
      <point x="654.71" y="201.293" type="curve" smooth="yes"/>
      <point x="654.71" y="261.134"/>
      <point x="671.03" y="405.985"/>
    </contour>
    <contour>
      <point x="778.326" y="386.419" type="line"/>
      <point x="691.516" y="386.61"/>
      <point x="675.075" y="260.134"/>
      <point x="675.075" y="201.293" type="curve" smooth="yes"/>
      <point x="675.075" y="129.082"/>
      <point x="696.328" y="16.807"/>
      <point x="778.326" y="16.807" type="curve"/>
      <point x="778.326" y="16.807" type="line"/>
      <point x="868.187" y="16.807"/>
      <point x="881.543" y="150.062"/>
      <point x="881.543" y="202.07" type="curve" smooth="yes"/>
      <point x="881.543" y="271.79"/>
      <point x="858.385" y="386.419"/>
      <point x="778.326" y="386.419" type="curve"/>
    </contour>
  </outline>
</glyph>
<glyph name="guilsinglleft" format="2">
  <advance width="300"/>
  <unicode hex="2039"/>
  <outline>
    <contour>
      <point x="213" y="460" type="line"/>
      <point x="40" y="265.452" type="line"/>
      <point x="213" y="70" type="line"/>
      <point x="240" y="70" type="line"/>
      <point x="67" y="265.453" type="line"/>
      <point x="240" y="460" type="line"/>
    </contour>
  </outline>
</glyph>
<glyph name="Euro" format="2">
  <advance width="586"/>
  <unicode hex="20AC"/>
  <outline>
    <contour>
      <point x="45" y="250" type="line"/>
      <point x="45" y="270" type="line"/>
      <point x="445" y="270" type="line"/>
      <point x="445" y="250" type="line"/>
    </contour>
    <contour>
      <point x="45" y="381" type="line"/>
      <point x="45" y="401" type="line"/>
      <point x="445" y="401" type="line"/>
      <point x="445" y="381" type="line"/>
    </contour>
    <contour>
      <point x="553.168" y="79.6592" type="line"/>
      <point x="507.843" y="35.0864"/>
      <point x="450.357" y="-10"/>
      <point x="357.247" y="-10" type="curve" smooth="yes"/>
      <point x="137.247" y="-10"/>
      <point x="106.213" y="211.245"/>
      <point x="106" y="361.245" type="curve" smooth="yes"/>
      <point x="105.847" y="468.786"/>
      <point x="135.15" y="710.132"/>
      <point x="357.206" y="710.132" type="curve" smooth="yes"/>
      <point x="450.401" y="710.132"/>
      <point x="509.481" y="664.771"/>
      <point x="539.287" y="620.465" type="curve"/>
      <point x="523.979" y="607.621" type="line"/>
      <point x="489.774" y="654.727"/>
      <point x="433.16" y="689.899"/>
      <point x="357.247" y="690" type="curve" smooth="yes"/>
      <point x="157.893" y="690.265"/>
      <point x="125.646" y="468.786"/>
      <point x="126" y="361.245" type="curve" smooth="yes"/>
      <point x="126.54" y="197.246"/>
      <point x="167.077" y="10"/>
      <point x="357.247" y="10" type="curve" smooth="yes"/>
      <point x="433.592" y="10"/>
      <point x="488.009" y="45.6183"/>
      <point x="537.619" y="92.6525" type="curve"/>
    </contour>
  </outline>
</glyph>
<glyph name="minus" format="2">
  <advance width="300"/>
  <unicode hex="2212"/>
  <outline>
    <contour>
      <point x="50" y="226" type="line"/>
      <point x="50" y="246" type="line"/>
      <point x="250" y="246" type="line"/>
      <point x="250" y="226" type="line"/>
    </contour>
  </outline>
</glyph>
